<mxfile host="app.diagrams.net" agent="Mozilla/5.0 (Windows NT 10.0; Win64; x64) AppleWebKit/537.36 (KHTML, like Gecko) Chrome/128.0.0.0 Safari/537.36" version="24.7.10">
  <diagram name="Страница — 1" id="7iHMDO9JaZv17xm5i7rZ">
    <mxGraphModel dx="1434" dy="814" grid="1" gridSize="10" guides="1" tooltips="1" connect="1" arrows="1" fold="1" page="1" pageScale="1" pageWidth="827" pageHeight="1169" math="0" shadow="0">
      <root>
        <mxCell id="0" />
        <mxCell id="1" parent="0" />
        <mxCell id="835w0tKPbX5rP-sIl0Z1-23" value="" style="dashed=0;align=center;fontSize=18;shape=rect;fillColor=#f5f5f5;strokeColor=#666666;fontColor=#333333;" parent="1" vertex="1">
          <mxGeometry x="80" y="110" width="767.5" height="550" as="geometry" />
        </mxCell>
        <mxCell id="ZNczbAX3ycEOwHUZUEnH-1" value="&lt;font color=&quot;#000033&quot;&gt;Выход&lt;/font&gt;" style="whiteSpace=wrap;html=1;dashed=0;align=center;fontSize=12;shape=rect;fillColor=#f8cecc;strokeColor=#b85450;fontStyle=1;shadow=1;gradientColor=#ea6b66;" parent="1" vertex="1">
          <mxGeometry x="348.37" y="591" width="163" height="36" as="geometry" />
        </mxCell>
        <mxCell id="ZNczbAX3ycEOwHUZUEnH-23" value="                           Список покупок" style="dashed=0;shape=rect;fillColor=#f5f5f5;strokeColor=#666666;shadow=1;fontColor=#333333;fontSize=30;fontStyle=3;verticalAlign=top;spacingBottom=0;spacingLeft=16;spacingTop=15;align=left;movable=1;resizable=1;rotatable=1;deletable=1;editable=1;locked=0;connectable=1;" parent="1" vertex="1">
          <mxGeometry x="65" y="729" width="805" height="631" as="geometry" />
        </mxCell>
        <mxCell id="ZNczbAX3ycEOwHUZUEnH-26" value="&lt;b style=&quot;&quot;&gt;&lt;i style=&quot;&quot;&gt;&lt;font color=&quot;#a3a3a3&quot;&gt;Название товара&lt;/font&gt;&lt;/i&gt;&lt;/b&gt;" style="text;fontSize=16;verticalAlign=middle;fillColor=#000000;whiteSpace=wrap;html=1;strokeColor=#666666;gradientColor=none;movable=0;resizable=0;rotatable=0;deletable=0;editable=0;locked=1;connectable=0;" parent="ZNczbAX3ycEOwHUZUEnH-23" vertex="1">
          <mxGeometry x="24.369868593955324" y="139.41" width="225.38045992115636" height="28.09" as="geometry" />
        </mxCell>
        <mxCell id="ZNczbAX3ycEOwHUZUEnH-28" value="Сохранить" style="shape=rect;fontSize=13;strokeColor=#b85450;fillColor=#f8cecc;fontStyle=1;whiteSpace=wrap;html=1;gradientColor=#ea6b66;movable=0;resizable=0;rotatable=0;deletable=0;editable=0;locked=1;connectable=0;" parent="ZNczbAX3ycEOwHUZUEnH-23" vertex="1">
          <mxGeometry x="26.84" y="561.8673086412368" width="133.16" height="40.13337918865977" as="geometry" />
        </mxCell>
        <mxCell id="ZNczbAX3ycEOwHUZUEnH-12" value="&lt;b style=&quot;&quot;&gt;&lt;i style=&quot;&quot;&gt;&lt;font color=&quot;#ababab&quot;&gt;Введите название списка покупок&lt;/font&gt;&lt;/i&gt;&lt;/b&gt;" style="text;fontSize=16;verticalAlign=middle;fillColor=#000000;whiteSpace=wrap;html=1;strokeColor=#666666;gradientColor=none;movable=1;resizable=1;rotatable=1;deletable=1;editable=1;locked=0;connectable=1;" parent="ZNczbAX3ycEOwHUZUEnH-23" vertex="1">
          <mxGeometry x="24.37" y="75.48185474826919" width="485.63" height="34.71221795236027" as="geometry" />
        </mxCell>
        <mxCell id="Om5FwkxhaiSLyp4vVOih-11" value="&lt;b style=&quot;&quot;&gt;&lt;i style=&quot;&quot;&gt;&lt;font color=&quot;#b0b0b0&quot;&gt;Кол.&lt;/font&gt;&lt;/i&gt;&lt;/b&gt;" style="text;fontSize=16;verticalAlign=middle;fillColor=#000000;whiteSpace=wrap;html=1;strokeColor=#666666;gradientColor=none;movable=0;resizable=0;rotatable=0;deletable=0;editable=0;locked=1;connectable=0;" parent="ZNczbAX3ycEOwHUZUEnH-23" vertex="1">
          <mxGeometry x="265.11957950065704" y="139.41000000000003" width="66.27989487516426" height="28.96" as="geometry" />
        </mxCell>
        <mxCell id="Om5FwkxhaiSLyp4vVOih-7" value="" style="shape=ellipse;fillColor=#f8cecc;strokeColor=#b85450;shadow=1;aspect=fixed;sketch=0;html=1;labelPosition=center;verticalLabelPosition=bottom;align=center;verticalAlign=top;gradientColor=#ea6b66;movable=0;resizable=0;rotatable=0;deletable=0;editable=0;locked=1;connectable=0;" parent="ZNczbAX3ycEOwHUZUEnH-23" vertex="1">
          <mxGeometry x="24.95389876880985" y="197.0950251955081" width="29.70769427079802" height="29.70769427079802" as="geometry" />
        </mxCell>
        <mxCell id="Om5FwkxhaiSLyp4vVOih-8" value="" style="dashed=0;html=1;shape=mxgraph.gmdl.plus;strokeColor=#ffffff;strokeWidth=2;shadow=0;sketch=0;" parent="Om5FwkxhaiSLyp4vVOih-7" vertex="1">
          <mxGeometry x="10.609890810999289" y="10.609890810999289" width="8.48791264879943" height="8.48791264879943" as="geometry" />
        </mxCell>
        <mxCell id="Om5FwkxhaiSLyp4vVOih-9" value="&lt;b&gt;&lt;font style=&quot;font-size: 18px;&quot;&gt;Добавить товар&lt;/font&gt;&lt;/b&gt;" style="text;fontSize=16;verticalAlign=middle;strokeColor=none;fillColor=none;whiteSpace=wrap;html=1;movable=1;resizable=1;rotatable=1;deletable=1;editable=1;locked=0;connectable=1;" parent="ZNczbAX3ycEOwHUZUEnH-23" vertex="1">
          <mxGeometry x="65.0023392612859" y="197.0951252298995" width="170.81196990424078" height="35.076573410888635" as="geometry" />
        </mxCell>
        <mxCell id="Om5FwkxhaiSLyp4vVOih-15" value="&lt;b style=&quot;&quot;&gt;&lt;i style=&quot;&quot;&gt;&lt;font color=&quot;#adadad&quot;&gt;Категория&lt;/font&gt;&lt;/i&gt;&lt;/b&gt;" style="text;fontSize=16;verticalAlign=middle;fillColor=#000000;whiteSpace=wrap;html=1;strokeColor=#666666;gradientColor=none;movable=0;resizable=0;rotatable=0;deletable=0;editable=0;locked=1;connectable=0;" parent="ZNczbAX3ycEOwHUZUEnH-23" vertex="1">
          <mxGeometry x="343.2872928176796" y="138.55" width="161.54696132596686" height="28.96" as="geometry" />
        </mxCell>
        <mxCell id="Om5FwkxhaiSLyp4vVOih-52" value="" style="dashed=0;outlineConnect=0;html=1;align=center;labelPosition=center;verticalLabelPosition=bottom;verticalAlign=top;shape=mxgraph.webicons.oracle;fillColor=#FA3743;gradientColor=#E10E11;movable=1;resizable=1;rotatable=1;deletable=1;editable=1;locked=0;connectable=1;" parent="ZNczbAX3ycEOwHUZUEnH-23" vertex="1">
          <mxGeometry x="570" y="70.99671366837624" width="204.92" height="150.50017195747407" as="geometry" />
        </mxCell>
        <mxCell id="Om5FwkxhaiSLyp4vVOih-72" value="&lt;span style=&quot;font-weight: 700; text-align: center;&quot;&gt;&lt;font size=&quot;1&quot; style=&quot;&quot; color=&quot;#ffffff&quot;&gt;&lt;i style=&quot;font-size: 14px;&quot;&gt;Охота и Рыбалка&lt;/i&gt;&lt;/font&gt;&lt;/span&gt;" style="text;fontSize=16;verticalAlign=middle;fillColor=#000000;whiteSpace=wrap;html=1;strokeColor=#666666;gradientColor=none;movable=0;resizable=0;rotatable=0;deletable=0;editable=0;locked=1;connectable=0;" parent="ZNczbAX3ycEOwHUZUEnH-23" vertex="1">
          <mxGeometry x="343.2872928176796" y="225.43" width="161.54696132596686" height="28.96" as="geometry" />
        </mxCell>
        <mxCell id="Om5FwkxhaiSLyp4vVOih-71" value="&lt;span style=&quot;text-align: center;&quot;&gt;&lt;font size=&quot;1&quot; style=&quot;&quot; color=&quot;#ffffff&quot;&gt;&lt;i style=&quot;&quot;&gt;&lt;b style=&quot;font-size: 14px;&quot;&gt;Сад и огород&lt;/b&gt;&lt;/i&gt;&lt;/font&gt;&lt;/span&gt;" style="text;fontSize=16;verticalAlign=middle;fillColor=#000000;whiteSpace=wrap;html=1;strokeColor=#666666;gradientColor=none;movable=0;resizable=0;rotatable=0;deletable=0;editable=0;locked=1;connectable=0;" parent="ZNczbAX3ycEOwHUZUEnH-23" vertex="1">
          <mxGeometry x="343.2872928176796" y="196.47" width="161.54696132596686" height="28.96" as="geometry" />
        </mxCell>
        <mxCell id="Om5FwkxhaiSLyp4vVOih-68" value="&lt;font size=&quot;1&quot; style=&quot;&quot; color=&quot;#ffffff&quot;&gt;&lt;b style=&quot;&quot;&gt;&lt;i style=&quot;font-size: 14px;&quot;&gt;Спорт. Товары&lt;/i&gt;&lt;/b&gt;&lt;/font&gt;" style="text;fontSize=16;verticalAlign=middle;fillColor=#000000;whiteSpace=wrap;html=1;strokeColor=#666666;gradientColor=none;movable=0;resizable=0;rotatable=0;deletable=0;editable=0;locked=1;connectable=0;" parent="ZNczbAX3ycEOwHUZUEnH-23" vertex="1">
          <mxGeometry x="343.2872928176796" y="167.51" width="161.54696132596686" height="28.96" as="geometry" />
        </mxCell>
        <mxCell id="Om5FwkxhaiSLyp4vVOih-73" value="&lt;span style=&quot;font-weight: 700; text-align: center;&quot;&gt;&lt;font size=&quot;1&quot; style=&quot;&quot; color=&quot;#ffffff&quot;&gt;&lt;i style=&quot;font-size: 14px;&quot;&gt;Строй. Материалы&lt;/i&gt;&lt;/font&gt;&lt;/span&gt;" style="text;fontSize=16;verticalAlign=middle;fillColor=#000000;whiteSpace=wrap;html=1;strokeColor=#666666;gradientColor=none;movable=0;resizable=0;rotatable=0;deletable=0;editable=0;locked=1;connectable=0;" parent="ZNczbAX3ycEOwHUZUEnH-23" vertex="1">
          <mxGeometry x="343.2872928176796" y="254.39" width="161.54696132596686" height="28.96" as="geometry" />
        </mxCell>
        <mxCell id="Om5FwkxhaiSLyp4vVOih-70" value="&lt;span style=&quot;font-weight: 700; text-align: center;&quot;&gt;&lt;font color=&quot;#ffffff&quot; style=&quot;font-size: 14px;&quot;&gt;&lt;i&gt;Канц. Товары&lt;/i&gt;&lt;/font&gt;&lt;/span&gt;" style="text;fontSize=16;verticalAlign=middle;fillColor=#000000;whiteSpace=wrap;html=1;strokeColor=#666666;gradientColor=none;movable=0;resizable=0;rotatable=0;deletable=0;editable=0;locked=1;connectable=0;" parent="ZNczbAX3ycEOwHUZUEnH-23" vertex="1">
          <mxGeometry x="343.2872928176796" y="313.3513913602583" width="161.54696132596686" height="29.05656653258966" as="geometry" />
        </mxCell>
        <mxCell id="m0QXF2XwWmVyPDSkMAsk-23" value="" style="shape=ellipse;fillColor=#f8cecc;strokeColor=#b85450;shadow=1;aspect=fixed;sketch=0;html=1;labelPosition=center;verticalLabelPosition=bottom;align=center;verticalAlign=top;gradientColor=#ea6b66;movable=1;resizable=1;rotatable=1;deletable=1;editable=1;locked=0;connectable=1;" parent="ZNczbAX3ycEOwHUZUEnH-23" vertex="1">
          <mxGeometry x="516.82389876881" y="139.01199216472028" width="29.70769427079802" height="29.70769427079802" as="geometry" />
        </mxCell>
        <mxCell id="m0QXF2XwWmVyPDSkMAsk-24" value="" style="dashed=0;html=1;shape=mxgraph.gmdl.plus;strokeColor=#ffffff;strokeWidth=2;shadow=0;sketch=0;" parent="m0QXF2XwWmVyPDSkMAsk-23" vertex="1">
          <mxGeometry x="10.609890810999289" y="10.609890810999289" width="8.48791264879943" height="8.48791264879943" as="geometry" />
        </mxCell>
        <mxCell id="m0QXF2XwWmVyPDSkMAsk-25" value="&lt;b&gt;&lt;font style=&quot;font-size: 18px;&quot;&gt;Картошка, 12кг, Продукты питания&lt;/font&gt;&lt;/b&gt;" style="text;fontSize=16;verticalAlign=middle;strokeColor=none;fillColor=none;whiteSpace=wrap;html=1;movable=0;resizable=0;rotatable=0;deletable=0;editable=0;locked=1;connectable=0;" parent="ZNczbAX3ycEOwHUZUEnH-23" vertex="1">
          <mxGeometry x="54.95" y="276.6694827818232" width="340" height="32.83913752112085" as="geometry" />
        </mxCell>
        <mxCell id="m0QXF2XwWmVyPDSkMAsk-26" value="&lt;b&gt;&lt;font style=&quot;font-size: 18px;&quot;&gt;Lada Vesta, 1 шт, Техника&lt;/font&gt;&lt;/b&gt;" style="text;fontSize=16;verticalAlign=middle;strokeColor=none;fillColor=none;whiteSpace=wrap;html=1;movable=0;resizable=0;rotatable=0;deletable=0;editable=0;locked=1;connectable=0;" parent="ZNczbAX3ycEOwHUZUEnH-23" vertex="1">
          <mxGeometry x="54.95" y="309.50862030294417" width="350" height="32.83913752112085" as="geometry" />
        </mxCell>
        <mxCell id="m0QXF2XwWmVyPDSkMAsk-27" value="&lt;b&gt;&lt;font style=&quot;font-size: 18px;&quot;&gt;Чебуреки, 4 шт, Продукты питания&lt;/font&gt;&lt;/b&gt;" style="text;fontSize=16;verticalAlign=middle;strokeColor=none;fillColor=none;whiteSpace=wrap;html=1;movable=0;resizable=0;rotatable=0;deletable=0;editable=0;locked=1;connectable=0;" parent="ZNczbAX3ycEOwHUZUEnH-23" vertex="1">
          <mxGeometry x="54.95" y="344.1637932323517" width="320" height="32.83913752112085" as="geometry" />
        </mxCell>
        <mxCell id="m0QXF2XwWmVyPDSkMAsk-28" value="&lt;b&gt;&lt;font style=&quot;font-size: 18px;&quot;&gt;Топор, 1 шт, Инструменты&lt;/font&gt;&lt;/b&gt;" style="text;fontSize=16;verticalAlign=middle;strokeColor=none;fillColor=none;whiteSpace=wrap;html=1;movable=0;resizable=0;rotatable=0;deletable=0;editable=0;locked=1;connectable=0;" parent="ZNczbAX3ycEOwHUZUEnH-23" vertex="1">
          <mxGeometry x="54.95" y="374.26382762384657" width="320" height="32.83913752112085" as="geometry" />
        </mxCell>
        <mxCell id="m0QXF2XwWmVyPDSkMAsk-29" value="&lt;b&gt;&lt;font style=&quot;font-size: 18px;&quot;&gt;Ноутбук, 1 шт, Электроника&lt;/font&gt;&lt;/b&gt;" style="text;fontSize=16;verticalAlign=middle;strokeColor=none;fillColor=none;whiteSpace=wrap;html=1;movable=0;resizable=0;rotatable=0;deletable=0;editable=0;locked=1;connectable=0;" parent="ZNczbAX3ycEOwHUZUEnH-23" vertex="1">
          <mxGeometry x="54.95" y="404.3638620153412" width="320" height="32.83913752112085" as="geometry" />
        </mxCell>
        <mxCell id="m0QXF2XwWmVyPDSkMAsk-30" value="" style="dashed=0;labelPosition=right;align=left;shape=mxgraph.gmdl.checkbox;strokeColor=#666666;fillColor=none;strokeWidth=2;aspect=fixed;sketch=0;html=1;movable=0;resizable=0;rotatable=0;deletable=0;editable=0;locked=1;connectable=0;" parent="ZNczbAX3ycEOwHUZUEnH-23" vertex="1">
          <mxGeometry x="24.950000000000003" y="285.0573590322533" width="13.580660238079092" height="13.580660238079092" as="geometry" />
        </mxCell>
        <mxCell id="m0QXF2XwWmVyPDSkMAsk-31" value="" style="dashed=0;labelPosition=right;align=left;shape=mxgraph.gmdl.checkbox;strokeColor=#666666;fillColor=none;strokeWidth=2;aspect=fixed;sketch=0;html=1;movable=0;resizable=0;rotatable=0;deletable=0;editable=0;locked=1;connectable=0;" parent="ZNczbAX3ycEOwHUZUEnH-23" vertex="1">
          <mxGeometry x="24.950000000000003" y="317.8964965533741" width="13.580660238079092" height="13.580660238079092" as="geometry" />
        </mxCell>
        <mxCell id="m0QXF2XwWmVyPDSkMAsk-32" value="" style="dashed=0;labelPosition=right;align=left;shape=mxgraph.gmdl.checkbox;strokeColor=#666666;fillColor=none;strokeWidth=2;aspect=fixed;sketch=0;html=1;movable=0;resizable=0;rotatable=0;deletable=0;editable=0;locked=1;connectable=0;" parent="ZNczbAX3ycEOwHUZUEnH-23" vertex="1">
          <mxGeometry x="24.950000000000003" y="352.5516694827817" width="13.580660238079092" height="13.580660238079092" as="geometry" />
        </mxCell>
        <mxCell id="m0QXF2XwWmVyPDSkMAsk-33" value="" style="dashed=0;labelPosition=right;align=left;shape=mxgraph.gmdl.checkbox;strokeColor=#666666;fillColor=none;strokeWidth=2;aspect=fixed;sketch=0;html=1;movable=0;resizable=0;rotatable=0;deletable=0;editable=0;locked=1;connectable=0;" parent="ZNczbAX3ycEOwHUZUEnH-23" vertex="1">
          <mxGeometry x="24.950000000000003" y="382.6517038742765" width="13.580660238079092" height="13.580660238079092" as="geometry" />
        </mxCell>
        <mxCell id="m0QXF2XwWmVyPDSkMAsk-34" value="" style="dashed=0;labelPosition=right;align=left;shape=mxgraph.gmdl.checkbox;strokeColor=#666666;fillColor=none;strokeWidth=2;aspect=fixed;sketch=0;html=1;movable=0;resizable=0;rotatable=0;deletable=0;editable=0;locked=1;connectable=0;" parent="ZNczbAX3ycEOwHUZUEnH-23" vertex="1">
          <mxGeometry x="24.950000000000003" y="412.7517382657714" width="13.580660238079092" height="13.580660238079092" as="geometry" />
        </mxCell>
        <mxCell id="m0QXF2XwWmVyPDSkMAsk-38" value="" style="dashed=0;html=1;shape=mxgraph.gmdl.health;strokeColor=none;fillColor=#737373;shadow=0;sketch=0;html=1;labelPosition=center;verticalLabelPosition=bottom;align=center;verticalAlign=top;" parent="ZNczbAX3ycEOwHUZUEnH-23" vertex="1">
          <mxGeometry x="420.44" y="355.89694513808985" width="21.51" height="19.04029786025089" as="geometry" />
        </mxCell>
        <mxCell id="m0QXF2XwWmVyPDSkMAsk-39" value="" style="dashed=0;html=1;shape=mxgraph.gmdl.health;strokeColor=none;fillColor=#737373;shadow=0;sketch=0;html=1;labelPosition=center;verticalLabelPosition=bottom;align=center;verticalAlign=top;" parent="ZNczbAX3ycEOwHUZUEnH-23" vertex="1">
          <mxGeometry x="420.44" y="388.14656757928776" width="21.51" height="19.04029786025089" as="geometry" />
        </mxCell>
        <mxCell id="Om5FwkxhaiSLyp4vVOih-67" value="&lt;span style=&quot;font-weight: 700; text-align: center;&quot;&gt;&lt;font style=&quot;font-size: 14px;&quot; color=&quot;#ffffff&quot;&gt;&lt;i&gt;Продукты питания&lt;/i&gt;&lt;/font&gt;&lt;/span&gt;" style="text;fontSize=16;verticalAlign=middle;fillColor=#000000;whiteSpace=wrap;html=1;strokeColor=#666666;gradientColor=none;movable=0;resizable=0;rotatable=0;deletable=0;editable=0;locked=1;connectable=0;" parent="ZNczbAX3ycEOwHUZUEnH-23" vertex="1">
          <mxGeometry x="343.2872928176796" y="342.4079578928477" width="161.54696132596686" height="29.05656653258966" as="geometry" />
        </mxCell>
        <mxCell id="Om5FwkxhaiSLyp4vVOih-74" value="&lt;span style=&quot;font-weight: 700; text-align: center;&quot;&gt;&lt;font size=&quot;1&quot; style=&quot;&quot; color=&quot;#ffffff&quot;&gt;&lt;i style=&quot;font-size: 14px;&quot;&gt;Игрушки&lt;/i&gt;&lt;/font&gt;&lt;/span&gt;" style="text;fontSize=16;verticalAlign=middle;fillColor=#000000;whiteSpace=wrap;html=1;strokeColor=#666666;gradientColor=none;movable=0;resizable=0;rotatable=0;deletable=0;editable=0;locked=1;connectable=0;" parent="ZNczbAX3ycEOwHUZUEnH-23" vertex="1">
          <mxGeometry x="343.2872928176796" y="284.29482482766866" width="161.54696132596686" height="29.05656653258966" as="geometry" />
        </mxCell>
        <mxCell id="m0QXF2XwWmVyPDSkMAsk-41" value="Удалить" style="shape=rect;fontSize=13;strokeColor=#b85450;fillColor=#f8cecc;fontStyle=1;whiteSpace=wrap;html=1;gradientColor=#ea6b66;movable=0;resizable=0;rotatable=0;deletable=0;editable=0;locked=1;connectable=0;" parent="ZNczbAX3ycEOwHUZUEnH-23" vertex="1">
          <mxGeometry x="216.29" y="561.8673086412368" width="127" height="40.13337918865977" as="geometry" />
        </mxCell>
        <mxCell id="Om5FwkxhaiSLyp4vVOih-13" value="Отмена" style="shape=rect;fontSize=13;strokeColor=#b85450;fillColor=#f8cecc;fontStyle=1;whiteSpace=wrap;html=1;gradientColor=#ea6b66;movable=0;resizable=0;rotatable=0;deletable=0;editable=0;locked=1;connectable=0;" parent="ZNczbAX3ycEOwHUZUEnH-23" vertex="1">
          <mxGeometry x="635" y="562" width="130.63" height="40" as="geometry" />
        </mxCell>
        <mxCell id="m0QXF2XwWmVyPDSkMAsk-40" value="Редактировать" style="shape=rect;fontSize=13;strokeColor=#b85450;fillColor=#f8cecc;fontStyle=1;whiteSpace=wrap;html=1;gradientColor=#ea6b66;movable=0;resizable=0;rotatable=0;deletable=0;editable=0;locked=1;connectable=0;" parent="ZNczbAX3ycEOwHUZUEnH-23" vertex="1">
          <mxGeometry x="455" y="561.87" width="125" height="40" as="geometry" />
        </mxCell>
        <mxCell id="Om5FwkxhaiSLyp4vVOih-16" value="                           Списки покупок" style="dashed=0;shape=rect;fillColor=#f5f5f5;strokeColor=#666666;shadow=1;fontColor=#333333;fontSize=30;fontStyle=3;verticalAlign=top;spacingBottom=0;spacingLeft=16;spacingTop=15;align=left;" parent="1" vertex="1">
          <mxGeometry x="103" y="1434.53" width="724" height="600" as="geometry" />
        </mxCell>
        <mxCell id="Om5FwkxhaiSLyp4vVOih-22" value="" style="shape=ellipse;fillColor=#f8cecc;strokeColor=#b85450;shadow=1;aspect=fixed;sketch=0;html=1;labelPosition=center;verticalLabelPosition=bottom;align=center;verticalAlign=top;gradientColor=#ea6b66;" parent="Om5FwkxhaiSLyp4vVOih-16" vertex="1">
          <mxGeometry x="33" y="407.49" width="33.59" height="33.59" as="geometry" />
        </mxCell>
        <mxCell id="Om5FwkxhaiSLyp4vVOih-23" value="" style="dashed=0;html=1;shape=mxgraph.gmdl.plus;strokeColor=#ffffff;strokeWidth=2;shadow=0;sketch=0;" parent="Om5FwkxhaiSLyp4vVOih-22" vertex="1">
          <mxGeometry x="11.99642857142857" y="11.99642857142857" width="9.59714285714286" height="9.59714285714286" as="geometry" />
        </mxCell>
        <mxCell id="Om5FwkxhaiSLyp4vVOih-24" value="&lt;b&gt;&lt;font style=&quot;font-size: 18px;&quot;&gt;Добавить список покупок&lt;/font&gt;&lt;/b&gt;" style="text;fontSize=16;verticalAlign=middle;strokeColor=none;fillColor=none;whiteSpace=wrap;html=1;" parent="Om5FwkxhaiSLyp4vVOih-16" vertex="1">
          <mxGeometry x="79.99935611038107" y="407.48727272727274" width="255.92115637319316" height="32.72727272727273" as="geometry" />
        </mxCell>
        <mxCell id="Om5FwkxhaiSLyp4vVOih-27" value="&lt;b&gt;&lt;font style=&quot;font-size: 18px;&quot;&gt;Ашан&lt;/font&gt;&lt;/b&gt;" style="text;fontSize=16;verticalAlign=middle;strokeColor=none;fillColor=none;whiteSpace=wrap;html=1;" parent="Om5FwkxhaiSLyp4vVOih-16" vertex="1">
          <mxGeometry x="33" y="129.07999999999998" width="447" height="32.73" as="geometry" />
        </mxCell>
        <mxCell id="Om5FwkxhaiSLyp4vVOih-28" value="&lt;b&gt;&lt;font style=&quot;font-size: 18px;&quot;&gt;Спортмастер вещи&lt;/font&gt;&lt;/b&gt;" style="text;fontSize=16;verticalAlign=middle;strokeColor=none;fillColor=none;whiteSpace=wrap;html=1;" parent="Om5FwkxhaiSLyp4vVOih-16" vertex="1">
          <mxGeometry x="33" y="161.80999999999997" width="447" height="32.73" as="geometry" />
        </mxCell>
        <mxCell id="Om5FwkxhaiSLyp4vVOih-29" value="&lt;span style=&quot;font-size: 18px;&quot;&gt;&lt;b&gt;Купить коту еды&lt;/b&gt;&lt;/span&gt;" style="text;fontSize=16;verticalAlign=middle;strokeColor=none;fillColor=none;whiteSpace=wrap;html=1;" parent="Om5FwkxhaiSLyp4vVOih-16" vertex="1">
          <mxGeometry x="33" y="194.54" width="447" height="32.73" as="geometry" />
        </mxCell>
        <mxCell id="Om5FwkxhaiSLyp4vVOih-30" value="&lt;b&gt;&lt;font color=&quot;#000033&quot; style=&quot;font-size: 18px;&quot;&gt;Фрукты&lt;/font&gt;&lt;/b&gt;" style="text;fontSize=16;verticalAlign=middle;strokeColor=none;fillColor=none;whiteSpace=wrap;html=1;" parent="Om5FwkxhaiSLyp4vVOih-16" vertex="1">
          <mxGeometry x="33" y="227.27" width="437" height="32.73" as="geometry" />
        </mxCell>
        <mxCell id="ZNczbAX3ycEOwHUZUEnH-30" value="" style="dashed=0;outlineConnect=0;html=1;align=center;labelPosition=center;verticalLabelPosition=bottom;verticalAlign=top;shape=mxgraph.webicons.oracle;fillColor=#FA3743;gradientColor=#E10E11" parent="Om5FwkxhaiSLyp4vVOih-16" vertex="1">
          <mxGeometry x="480" y="80" width="218.95" height="190" as="geometry" />
        </mxCell>
        <mxCell id="Om5FwkxhaiSLyp4vVOih-31" value="Открыть" style="shape=rect;fontSize=13;strokeColor=#b85450;fillColor=#f8cecc;fontStyle=1;whiteSpace=wrap;html=1;gradientColor=#ea6b66;" parent="Om5FwkxhaiSLyp4vVOih-16" vertex="1">
          <mxGeometry x="33" y="517.22" width="197" height="47.77" as="geometry" />
        </mxCell>
        <mxCell id="Om5FwkxhaiSLyp4vVOih-33" value="&lt;span style=&quot;font-size: 18px;&quot;&gt;&lt;b&gt;Купить домой&lt;/b&gt;&lt;/span&gt;" style="text;fontSize=16;verticalAlign=middle;strokeColor=none;fillColor=none;whiteSpace=wrap;html=1;" parent="Om5FwkxhaiSLyp4vVOih-16" vertex="1">
          <mxGeometry x="33" y="260" width="437" height="32.73" as="geometry" />
        </mxCell>
        <mxCell id="Om5FwkxhaiSLyp4vVOih-34" value="&lt;b&gt;&lt;font style=&quot;font-size: 18px;&quot;&gt;Запчасти на машину&lt;/font&gt;&lt;/b&gt;" style="text;fontSize=16;verticalAlign=middle;strokeColor=none;fillColor=none;whiteSpace=wrap;html=1;" parent="Om5FwkxhaiSLyp4vVOih-16" vertex="1">
          <mxGeometry x="33" y="297.27" width="437" height="32.73" as="geometry" />
        </mxCell>
        <mxCell id="Om5FwkxhaiSLyp4vVOih-35" value="&lt;b&gt;&lt;font style=&quot;font-size: 18px;&quot;&gt;Купить стиральный порошок&lt;/font&gt;&lt;/b&gt;" style="text;fontSize=16;verticalAlign=middle;strokeColor=none;fillColor=none;whiteSpace=wrap;html=1;" parent="Om5FwkxhaiSLyp4vVOih-16" vertex="1">
          <mxGeometry x="33" y="330" width="427" height="32.73" as="geometry" />
        </mxCell>
        <mxCell id="Om5FwkxhaiSLyp4vVOih-54" value="Редактировать" style="shape=rect;fontSize=13;strokeColor=#b85450;fillColor=#f8cecc;fontStyle=1;whiteSpace=wrap;html=1;gradientColor=#ea6b66;" parent="Om5FwkxhaiSLyp4vVOih-16" vertex="1">
          <mxGeometry x="490" y="517.22" width="200" height="47.77" as="geometry" />
        </mxCell>
        <mxCell id="Om5FwkxhaiSLyp4vVOih-53" value="Удалить" style="shape=rect;fontSize=13;strokeColor=#b85450;fillColor=#f8cecc;fontStyle=1;whiteSpace=wrap;html=1;gradientColor=#ea6b66;" parent="Om5FwkxhaiSLyp4vVOih-16" vertex="1">
          <mxGeometry x="257" y="517.22" width="210" height="47.77" as="geometry" />
        </mxCell>
        <mxCell id="E5LjbTKkrN9vk3fWlF7o-57" value="Отмена" style="shape=rect;fontSize=13;strokeColor=#b85450;fillColor=#f8cecc;fontStyle=1;whiteSpace=wrap;html=1;gradientColor=#ea6b66;" parent="Om5FwkxhaiSLyp4vVOih-16" vertex="1">
          <mxGeometry x="490" y="408.36" width="200" height="47.77" as="geometry" />
        </mxCell>
        <mxCell id="Om5FwkxhaiSLyp4vVOih-69" value="&lt;span style=&quot;font-weight: 700; text-align: center;&quot;&gt;&lt;font size=&quot;1&quot; style=&quot;&quot; color=&quot;#ffffff&quot;&gt;&lt;i style=&quot;font-size: 14px;&quot;&gt;Хоз. Товары&lt;/i&gt;&lt;/font&gt;&lt;/span&gt;" style="text;fontSize=16;verticalAlign=middle;fillColor=#000000;whiteSpace=wrap;html=1;strokeColor=#666666;gradientColor=none;movable=0;resizable=0;rotatable=0;deletable=0;editable=0;locked=1;connectable=0;" parent="1" vertex="1">
          <mxGeometry x="409" y="1100" width="160" height="28.96" as="geometry" />
        </mxCell>
        <mxCell id="Om5FwkxhaiSLyp4vVOih-76" value="&lt;span style=&quot;font-weight: 700; text-align: center;&quot;&gt;&lt;font color=&quot;#ffffff&quot; style=&quot;font-size: 14px;&quot;&gt;&lt;i&gt;Одежда&lt;/i&gt;&lt;/font&gt;&lt;/span&gt;" style="text;fontSize=16;verticalAlign=middle;fillColor=#000000;whiteSpace=wrap;html=1;strokeColor=#666666;gradientColor=none;movable=0;resizable=0;rotatable=0;deletable=0;editable=0;locked=1;connectable=0;" parent="1" vertex="1">
          <mxGeometry x="409" y="1130" width="160" height="28.96" as="geometry" />
        </mxCell>
        <mxCell id="Om5FwkxhaiSLyp4vVOih-77" value="&lt;span style=&quot;font-weight: 700; text-align: center;&quot;&gt;&lt;font color=&quot;#ffffff&quot; style=&quot;font-size: 14px;&quot;&gt;&lt;i&gt;Мебель&lt;/i&gt;&lt;/font&gt;&lt;/span&gt;" style="text;fontSize=16;verticalAlign=middle;fillColor=#000000;whiteSpace=wrap;html=1;strokeColor=#666666;gradientColor=none;movable=0;resizable=0;rotatable=0;deletable=0;editable=0;locked=1;connectable=0;" parent="1" vertex="1">
          <mxGeometry x="409" y="1158.96" width="160" height="28.96" as="geometry" />
        </mxCell>
        <mxCell id="Om5FwkxhaiSLyp4vVOih-78" value="&lt;span style=&quot;font-size: 14px; font-weight: 700; text-align: center;&quot;&gt;&lt;font color=&quot;#ffffff&quot;&gt;&lt;i&gt;Электроника&lt;/i&gt;&lt;/font&gt;&lt;/span&gt;" style="text;fontSize=16;verticalAlign=middle;fillColor=#000000;whiteSpace=wrap;html=1;strokeColor=#666666;gradientColor=none;movable=0;resizable=0;rotatable=0;deletable=0;editable=0;locked=1;connectable=0;" parent="1" vertex="1">
          <mxGeometry x="409" y="1187.92" width="160" height="28.96" as="geometry" />
        </mxCell>
        <mxCell id="Om5FwkxhaiSLyp4vVOih-79" value="&lt;span style=&quot;font-weight: 700; text-align: center;&quot;&gt;&lt;font color=&quot;#ffffff&quot; style=&quot;font-size: 14px;&quot;&gt;&lt;i&gt;Инструменты&lt;/i&gt;&lt;/font&gt;&lt;/span&gt;" style="text;fontSize=16;verticalAlign=middle;fillColor=#000000;whiteSpace=wrap;html=1;strokeColor=#666666;gradientColor=none;movable=0;resizable=0;rotatable=0;deletable=0;editable=0;locked=1;connectable=0;" parent="1" vertex="1">
          <mxGeometry x="409" y="1216.8799999999999" width="160" height="28.96" as="geometry" />
        </mxCell>
        <mxCell id="Om5FwkxhaiSLyp4vVOih-80" value="&lt;span style=&quot;font-weight: 700; text-align: center;&quot;&gt;&lt;font color=&quot;#ffffff&quot; style=&quot;font-size: 14px;&quot;&gt;&lt;i&gt;Бытовая химия&lt;/i&gt;&lt;/font&gt;&lt;/span&gt;" style="text;fontSize=16;verticalAlign=middle;fillColor=#000000;whiteSpace=wrap;html=1;strokeColor=#666666;gradientColor=none;movable=0;resizable=0;rotatable=0;deletable=0;editable=0;locked=1;connectable=0;" parent="1" vertex="1">
          <mxGeometry x="409" y="1245.84" width="160" height="28.96" as="geometry" />
        </mxCell>
        <mxCell id="Om5FwkxhaiSLyp4vVOih-81" value="&lt;span style=&quot;font-weight: 700; text-align: center;&quot;&gt;&lt;font color=&quot;#ffffff&quot; style=&quot;font-size: 14px;&quot;&gt;&lt;i&gt;Техника&lt;/i&gt;&lt;/font&gt;&lt;/span&gt;" style="text;fontSize=16;verticalAlign=middle;fillColor=#000000;whiteSpace=wrap;html=1;strokeColor=#666666;gradientColor=none;movable=0;resizable=0;rotatable=0;deletable=0;editable=0;locked=1;connectable=0;" parent="1" vertex="1">
          <mxGeometry x="409" y="1274.8" width="160" height="28.96" as="geometry" />
        </mxCell>
        <mxCell id="Om5FwkxhaiSLyp4vVOih-82" value="&lt;span style=&quot;font-weight: 700; text-align: center;&quot;&gt;&lt;font color=&quot;#ffffff&quot; style=&quot;font-size: 14px;&quot;&gt;&lt;i&gt;Для животных&lt;/i&gt;&lt;/font&gt;&lt;/span&gt;" style="text;fontSize=16;verticalAlign=middle;fillColor=#000000;whiteSpace=wrap;html=1;strokeColor=#666666;gradientColor=none;movable=0;resizable=0;rotatable=0;deletable=0;editable=0;locked=1;connectable=0;" parent="1" vertex="1">
          <mxGeometry x="409" y="1303.76" width="160" height="28.96" as="geometry" />
        </mxCell>
        <mxCell id="Om5FwkxhaiSLyp4vVOih-84" value="              Новая категория" style="dashed=0;shape=rect;fillColor=#f5f5f5;strokeColor=#666666;shadow=1;fontColor=#333333;fontSize=30;fontStyle=3;verticalAlign=top;spacingBottom=0;spacingLeft=16;spacingTop=15;align=left;" parent="1" vertex="1">
          <mxGeometry x="964" y="120" width="554" height="260" as="geometry" />
        </mxCell>
        <mxCell id="Om5FwkxhaiSLyp4vVOih-86" value="Сохранить" style="shape=rect;fontSize=13;strokeColor=#b85450;fillColor=#f8cecc;fontStyle=1;whiteSpace=wrap;html=1;gradientColor=#ea6b66;" parent="Om5FwkxhaiSLyp4vVOih-84" vertex="1">
          <mxGeometry x="18.47" y="200" width="192.65" height="44.83" as="geometry" />
        </mxCell>
        <mxCell id="Om5FwkxhaiSLyp4vVOih-87" value="&lt;b style=&quot;&quot;&gt;&lt;i style=&quot;&quot;&gt;&lt;font color=&quot;#ababab&quot;&gt;Введите название категории&lt;/font&gt;&lt;/i&gt;&lt;/b&gt;" style="text;fontSize=16;verticalAlign=middle;fillColor=#000000;whiteSpace=wrap;html=1;strokeColor=#666666;gradientColor=none;" parent="Om5FwkxhaiSLyp4vVOih-84" vertex="1">
          <mxGeometry x="18.47" y="100" width="351.53" height="40" as="geometry" />
        </mxCell>
        <mxCell id="Om5FwkxhaiSLyp4vVOih-92" value="Отмена" style="shape=rect;fontSize=13;strokeColor=#b85450;fillColor=#f8cecc;fontStyle=1;whiteSpace=wrap;html=1;gradientColor=#ea6b66;" parent="Om5FwkxhaiSLyp4vVOih-84" vertex="1">
          <mxGeometry x="332.23" y="200" width="192.65" height="44.83" as="geometry" />
        </mxCell>
        <mxCell id="Om5FwkxhaiSLyp4vVOih-94" value="" style="dashed=0;outlineConnect=0;html=1;align=center;labelPosition=center;verticalLabelPosition=bottom;verticalAlign=top;shape=mxgraph.webicons.oracle;fillColor=#FA3743;gradientColor=#E10E11" parent="Om5FwkxhaiSLyp4vVOih-84" vertex="1">
          <mxGeometry x="390.2486187845304" y="68.82317585301838" width="134.62812154696132" height="102.36220472440945" as="geometry" />
        </mxCell>
        <mxCell id="E5LjbTKkrN9vk3fWlF7o-76" value=" Редактировать название списка" style="dashed=0;shape=rect;fillColor=#f5f5f5;strokeColor=#666666;shadow=1;fontColor=#333333;fontSize=30;fontStyle=3;verticalAlign=top;spacingBottom=0;spacingLeft=16;spacingTop=15;align=left;" parent="1" vertex="1">
          <mxGeometry x="964" y="1072.4" width="554" height="260" as="geometry" />
        </mxCell>
        <mxCell id="E5LjbTKkrN9vk3fWlF7o-77" value="Сохранить" style="shape=rect;fontSize=13;strokeColor=#b85450;fillColor=#f8cecc;fontStyle=1;whiteSpace=wrap;html=1;gradientColor=#ea6b66;" parent="E5LjbTKkrN9vk3fWlF7o-76" vertex="1">
          <mxGeometry x="18.47" y="200" width="192.65" height="44.83" as="geometry" />
        </mxCell>
        <mxCell id="E5LjbTKkrN9vk3fWlF7o-78" value="&lt;b style=&quot;&quot;&gt;&lt;i style=&quot;&quot;&gt;&lt;font color=&quot;#ababab&quot;&gt;Введите новое название&lt;/font&gt;&lt;/i&gt;&lt;/b&gt;" style="text;fontSize=16;verticalAlign=middle;fillColor=#000000;whiteSpace=wrap;html=1;strokeColor=#666666;gradientColor=none;" parent="E5LjbTKkrN9vk3fWlF7o-76" vertex="1">
          <mxGeometry x="18.47" y="100" width="351.53" height="40" as="geometry" />
        </mxCell>
        <mxCell id="E5LjbTKkrN9vk3fWlF7o-79" value="Отмена" style="shape=rect;fontSize=13;strokeColor=#b85450;fillColor=#f8cecc;fontStyle=1;whiteSpace=wrap;html=1;gradientColor=#ea6b66;" parent="E5LjbTKkrN9vk3fWlF7o-76" vertex="1">
          <mxGeometry x="332.23" y="200" width="192.65" height="44.83" as="geometry" />
        </mxCell>
        <mxCell id="E5LjbTKkrN9vk3fWlF7o-80" value="" style="dashed=0;outlineConnect=0;html=1;align=center;labelPosition=center;verticalLabelPosition=bottom;verticalAlign=top;shape=mxgraph.webicons.oracle;fillColor=#FA3743;gradientColor=#E10E11" parent="E5LjbTKkrN9vk3fWlF7o-76" vertex="1">
          <mxGeometry x="410" y="68.82" width="114.88" height="101.18" as="geometry" />
        </mxCell>
        <mxCell id="S43YXDCXtWBb4yZ_MCRR-6" value="           Вы уверены?" style="dashed=0;shape=rect;fillColor=#f5f5f5;strokeColor=#666666;shadow=1;fontColor=#333333;fontSize=30;fontStyle=3;verticalAlign=top;spacingBottom=0;spacingLeft=16;spacingTop=15;align=left;" parent="1" vertex="1">
          <mxGeometry x="964" y="2034.5300000000002" width="419" height="180" as="geometry" />
        </mxCell>
        <mxCell id="S43YXDCXtWBb4yZ_MCRR-7" value="Да" style="shape=rect;fontSize=13;strokeColor=#b85450;fillColor=#f8cecc;fontStyle=1;whiteSpace=wrap;html=1;gradientColor=#ea6b66;" parent="S43YXDCXtWBb4yZ_MCRR-6" vertex="1">
          <mxGeometry x="28.63" y="110" width="145.7" height="38.03" as="geometry" />
        </mxCell>
        <mxCell id="S43YXDCXtWBb4yZ_MCRR-9" value="Отмена" style="shape=rect;fontSize=13;strokeColor=#b85450;fillColor=#f8cecc;fontStyle=1;whiteSpace=wrap;html=1;gradientColor=#ea6b66;" parent="S43YXDCXtWBb4yZ_MCRR-6" vertex="1">
          <mxGeometry x="251.27" y="110" width="145.7" height="38.03" as="geometry" />
        </mxCell>
        <mxCell id="S43YXDCXtWBb4yZ_MCRR-41" value="                           Избранное" style="dashed=0;shape=rect;fillColor=#f5f5f5;strokeColor=#666666;shadow=1;fontColor=#333333;fontSize=30;fontStyle=3;verticalAlign=top;spacingBottom=0;spacingLeft=16;spacingTop=15;align=left;" parent="1" vertex="1">
          <mxGeometry x="134.81" y="3450" width="669" height="610" as="geometry" />
        </mxCell>
        <mxCell id="S43YXDCXtWBb4yZ_MCRR-42" value="&lt;b&gt;&lt;font style=&quot;font-size: 18px;&quot;&gt;Ноутбук, 1 шт, Электроника&lt;/font&gt;&lt;/b&gt;" style="text;fontSize=16;verticalAlign=middle;strokeColor=none;fillColor=none;whiteSpace=wrap;html=1;" parent="1" vertex="1">
          <mxGeometry x="218.81" y="3800" width="320" height="32.73" as="geometry" />
        </mxCell>
        <mxCell id="S43YXDCXtWBb4yZ_MCRR-43" value="" style="dashed=0;labelPosition=right;align=left;shape=mxgraph.gmdl.checkbox;strokeColor=#666666;fillColor=none;strokeWidth=2;aspect=fixed;sketch=0;html=1;" parent="1" vertex="1">
          <mxGeometry x="188.81" y="3805.6400000000003" width="16" height="16" as="geometry" />
        </mxCell>
        <mxCell id="S43YXDCXtWBb4yZ_MCRR-44" value="" style="dashed=0;labelPosition=right;align=left;shape=mxgraph.gmdl.checkbox;strokeColor=#666666;fillColor=none;strokeWidth=2;aspect=fixed;sketch=0;html=1;" parent="1" vertex="1">
          <mxGeometry x="188.81" y="3775.6400000000003" width="16" height="16" as="geometry" />
        </mxCell>
        <mxCell id="S43YXDCXtWBb4yZ_MCRR-45" value="&lt;b&gt;&lt;font style=&quot;font-size: 18px;&quot;&gt;Топор, 1 шт, Инструменты&lt;/font&gt;&lt;/b&gt;" style="text;fontSize=16;verticalAlign=middle;strokeColor=none;fillColor=none;whiteSpace=wrap;html=1;" parent="1" vertex="1">
          <mxGeometry x="218.81" y="3770" width="320" height="32.73" as="geometry" />
        </mxCell>
        <mxCell id="S43YXDCXtWBb4yZ_MCRR-46" value="&lt;b&gt;&lt;font style=&quot;font-size: 18px;&quot;&gt;Чебуреки, 4 шт, Продукты питания&lt;/font&gt;&lt;/b&gt;" style="text;fontSize=16;verticalAlign=middle;strokeColor=none;fillColor=none;whiteSpace=wrap;html=1;" parent="1" vertex="1">
          <mxGeometry x="218.81" y="3740" width="320" height="32.73" as="geometry" />
        </mxCell>
        <mxCell id="S43YXDCXtWBb4yZ_MCRR-47" value="" style="dashed=0;labelPosition=right;align=left;shape=mxgraph.gmdl.checkbox;strokeColor=#666666;fillColor=none;strokeWidth=2;aspect=fixed;sketch=0;html=1;" parent="1" vertex="1">
          <mxGeometry x="188.81" y="3745.6400000000003" width="16" height="16" as="geometry" />
        </mxCell>
        <mxCell id="S43YXDCXtWBb4yZ_MCRR-48" value="" style="dashed=0;labelPosition=right;align=left;shape=mxgraph.gmdl.checkbox;strokeColor=#666666;fillColor=none;strokeWidth=2;aspect=fixed;sketch=0;html=1;" parent="1" vertex="1">
          <mxGeometry x="188.81" y="3711.1000000000004" width="16" height="16" as="geometry" />
        </mxCell>
        <mxCell id="S43YXDCXtWBb4yZ_MCRR-49" value="&lt;b&gt;&lt;font style=&quot;font-size: 18px;&quot;&gt;Lada Vesta, 1 шт, Техника&lt;/font&gt;&lt;/b&gt;" style="text;fontSize=16;verticalAlign=middle;strokeColor=none;fillColor=none;whiteSpace=wrap;html=1;" parent="1" vertex="1">
          <mxGeometry x="218.81" y="3705.46" width="350" height="32.73" as="geometry" />
        </mxCell>
        <mxCell id="S43YXDCXtWBb4yZ_MCRR-50" value="&lt;b&gt;&lt;font style=&quot;font-size: 18px;&quot;&gt;Картошка, 12кг, Продукты питания&lt;/font&gt;&lt;/b&gt;" style="text;fontSize=16;verticalAlign=middle;strokeColor=none;fillColor=none;whiteSpace=wrap;html=1;" parent="1" vertex="1">
          <mxGeometry x="218.81" y="3672.7300000000005" width="340" height="32.73" as="geometry" />
        </mxCell>
        <mxCell id="S43YXDCXtWBb4yZ_MCRR-51" value="" style="dashed=0;labelPosition=right;align=left;shape=mxgraph.gmdl.checkbox;strokeColor=#666666;fillColor=none;strokeWidth=2;aspect=fixed;sketch=0;html=1;" parent="1" vertex="1">
          <mxGeometry x="188.81" y="3678.37" width="16" height="16" as="geometry" />
        </mxCell>
        <mxCell id="S43YXDCXtWBb4yZ_MCRR-52" value="" style="dashed=0;labelPosition=right;align=left;shape=mxgraph.gmdl.checkbox;strokeColor=#666666;fillColor=none;strokeWidth=2;aspect=fixed;sketch=0;html=1;" parent="1" vertex="1">
          <mxGeometry x="188.81" y="3645.6400000000003" width="16" height="16" as="geometry" />
        </mxCell>
        <mxCell id="S43YXDCXtWBb4yZ_MCRR-53" value="&lt;b&gt;&lt;font color=&quot;#000033&quot; style=&quot;font-size: 18px;&quot;&gt;Бананы, 2кг, Продукты питания&lt;/font&gt;&lt;/b&gt;" style="text;fontSize=16;verticalAlign=middle;strokeColor=none;fillColor=none;whiteSpace=wrap;html=1;" parent="1" vertex="1">
          <mxGeometry x="218.81" y="3640" width="350" height="32.73" as="geometry" />
        </mxCell>
        <mxCell id="S43YXDCXtWBb4yZ_MCRR-54" value="&lt;b&gt;&lt;font style=&quot;font-size: 18px;&quot;&gt;Шкаф, 1 шт, Мебель&lt;/font&gt;&lt;/b&gt;" style="text;fontSize=16;verticalAlign=middle;strokeColor=none;fillColor=none;whiteSpace=wrap;html=1;" parent="1" vertex="1">
          <mxGeometry x="218.81" y="3605.46" width="350" height="32.73" as="geometry" />
        </mxCell>
        <mxCell id="S43YXDCXtWBb4yZ_MCRR-55" value="" style="dashed=0;labelPosition=right;align=left;shape=mxgraph.gmdl.checkbox;strokeColor=#666666;fillColor=none;strokeWidth=2;aspect=fixed;sketch=0;html=1;" parent="1" vertex="1">
          <mxGeometry x="188.81" y="3611.1000000000004" width="16" height="16" as="geometry" />
        </mxCell>
        <mxCell id="S43YXDCXtWBb4yZ_MCRR-56" value="" style="dashed=0;labelPosition=right;align=left;shape=mxgraph.gmdl.checkbox;strokeColor=#666666;fillColor=none;strokeWidth=2;aspect=fixed;sketch=0;html=1;" parent="1" vertex="1">
          <mxGeometry x="188.81" y="3578.37" width="16" height="16" as="geometry" />
        </mxCell>
        <mxCell id="S43YXDCXtWBb4yZ_MCRR-57" value="&lt;b&gt;&lt;font style=&quot;font-size: 18px;&quot;&gt;Шапка, 1 шт, Одежда&lt;/font&gt;&lt;/b&gt;" style="text;fontSize=16;verticalAlign=middle;strokeColor=none;fillColor=none;whiteSpace=wrap;html=1;" parent="1" vertex="1">
          <mxGeometry x="218.81" y="3572.7300000000005" width="340" height="32.73" as="geometry" />
        </mxCell>
        <mxCell id="S43YXDCXtWBb4yZ_MCRR-58" value="" style="dashed=0;labelPosition=right;align=left;shape=mxgraph.gmdl.checkbox;strokeColor=#666666;fillColor=none;strokeWidth=2;aspect=fixed;sketch=0;html=1;" parent="1" vertex="1">
          <mxGeometry x="188.81" y="3547.01" width="16" height="16" as="geometry" />
        </mxCell>
        <mxCell id="S43YXDCXtWBb4yZ_MCRR-59" value="&lt;b&gt;&lt;font style=&quot;font-size: 18px;&quot;&gt;Огурцы, 7кг, Продукты питания&lt;/font&gt;&lt;/b&gt;" style="text;fontSize=16;verticalAlign=middle;strokeColor=none;fillColor=none;whiteSpace=wrap;html=1;" parent="1" vertex="1">
          <mxGeometry x="218.81" y="3540" width="340" height="32.73" as="geometry" />
        </mxCell>
        <mxCell id="S43YXDCXtWBb4yZ_MCRR-60" value="Удалить&lt;div&gt;выделенное&lt;/div&gt;" style="shape=rect;fontSize=13;strokeColor=#b85450;fillColor=#f8cecc;fontStyle=1;whiteSpace=wrap;html=1;gradientColor=#ea6b66;" parent="1" vertex="1">
          <mxGeometry x="174.81" y="3975.12" width="184" height="47.77" as="geometry" />
        </mxCell>
        <mxCell id="S43YXDCXtWBb4yZ_MCRR-61" value="Очистить&lt;div&gt;избранное&lt;/div&gt;" style="shape=rect;fontSize=13;strokeColor=#b85450;fillColor=#f8cecc;fontStyle=1;whiteSpace=wrap;html=1;gradientColor=#ea6b66;" parent="1" vertex="1">
          <mxGeometry x="390.81" y="3975.12" width="178" height="47.77" as="geometry" />
        </mxCell>
        <mxCell id="S43YXDCXtWBb4yZ_MCRR-62" value="Отмена" style="shape=rect;fontSize=13;strokeColor=#b85450;fillColor=#f8cecc;fontStyle=1;whiteSpace=wrap;html=1;gradientColor=#ea6b66;" parent="1" vertex="1">
          <mxGeometry x="598.81" y="3975.12" width="164" height="47.77" as="geometry" />
        </mxCell>
        <mxCell id="S43YXDCXtWBb4yZ_MCRR-133" value="&lt;font style=&quot;font-size: 18px;&quot; color=&quot;#ff3333&quot;&gt;&lt;i&gt;Добавить список&lt;/i&gt;&lt;/font&gt;" style="whiteSpace=wrap;html=1;dashed=0;align=center;fontSize=12;shape=rect;fillColor=#f5f5f5;strokeColor=#F2F2F2;fontStyle=1;shadow=1;fontColor=#333333;" parent="1" vertex="1">
          <mxGeometry x="100" y="270" width="450" height="46" as="geometry" />
        </mxCell>
        <mxCell id="S43YXDCXtWBb4yZ_MCRR-134" value="&lt;font size=&quot;1&quot; color=&quot;#ff3333&quot;&gt;&lt;i style=&quot;font-size: 18px;&quot;&gt;Мои списки&lt;/i&gt;&lt;/font&gt;" style="whiteSpace=wrap;html=1;dashed=0;align=center;fontSize=12;shape=rect;fillColor=#f5f5f5;strokeColor=#F2F2F2;fontStyle=1;shadow=1;fontColor=#333333;" parent="1" vertex="1">
          <mxGeometry x="100" y="430" width="202" height="46" as="geometry" />
        </mxCell>
        <mxCell id="S43YXDCXtWBb4yZ_MCRR-135" value="&lt;font style=&quot;font-size: 18px;&quot; color=&quot;#ff3333&quot;&gt;&lt;i&gt;История покупок&lt;/i&gt;&lt;/font&gt;" style="whiteSpace=wrap;html=1;dashed=0;align=center;fontSize=12;shape=rect;fillColor=#f5f5f5;strokeColor=#F2F2F2;fontStyle=1;shadow=1;fontColor=#333333;" parent="1" vertex="1">
          <mxGeometry x="571.64" y="430" width="201" height="46" as="geometry" />
        </mxCell>
        <mxCell id="S43YXDCXtWBb4yZ_MCRR-136" value="&lt;font style=&quot;font-size: 18px;&quot; color=&quot;#ff3333&quot;&gt;&lt;i&gt;Избранное&lt;/i&gt;&lt;/font&gt;" style="whiteSpace=wrap;html=1;dashed=0;align=center;fontSize=12;shape=rect;fillColor=#f5f5f5;strokeColor=#F2F2F2;fontStyle=1;shadow=1;fontColor=#333333;" parent="1" vertex="1">
          <mxGeometry x="329.37" y="430" width="201" height="46" as="geometry" />
        </mxCell>
        <mxCell id="S43YXDCXtWBb4yZ_MCRR-154" value="" style="dashed=0;shape=rect;fillColor=#ffffff;strokeColor=none;" parent="1" vertex="1">
          <mxGeometry x="3050" y="100" width="758" height="152" as="geometry" />
        </mxCell>
        <mxCell id="S43YXDCXtWBb4yZ_MCRR-155" value="" style="dashed=0;shape=rect;fillColor=#f8cecc;strokeColor=#b85450;resizeWidth=1;labelBackgroundColor=#FF0000;textShadow=1;gradientColor=#ea6b66;" parent="S43YXDCXtWBb4yZ_MCRR-154" vertex="1">
          <mxGeometry width="768" height="32" relative="1" as="geometry">
            <mxPoint x="-2970" y="-20" as="offset" />
          </mxGeometry>
        </mxCell>
        <mxCell id="S43YXDCXtWBb4yZ_MCRR-156" value="" style="dashed=0;shape=mxgraph.gmdl.x;strokeColor=#ABDFE6;strokeWidth=2;" parent="S43YXDCXtWBb4yZ_MCRR-155" vertex="1">
          <mxGeometry x="1" width="12" height="12" relative="1" as="geometry">
            <mxPoint x="-27" y="11" as="offset" />
          </mxGeometry>
        </mxCell>
        <mxCell id="S43YXDCXtWBb4yZ_MCRR-157" value="" style="shape=rect;strokeColor=#ABDFE6;strokeWidth=2;fillColor=none;" parent="S43YXDCXtWBb4yZ_MCRR-155" vertex="1">
          <mxGeometry x="1" width="13" height="10" relative="1" as="geometry">
            <mxPoint x="-59" y="13" as="offset" />
          </mxGeometry>
        </mxCell>
        <mxCell id="S43YXDCXtWBb4yZ_MCRR-158" value="" style="shape=line;strokeColor=#ABDFE6;strokeWidth=2;" parent="S43YXDCXtWBb4yZ_MCRR-155" vertex="1">
          <mxGeometry x="1" width="14" height="2" relative="1" as="geometry">
            <mxPoint x="-91" y="21" as="offset" />
          </mxGeometry>
        </mxCell>
        <mxCell id="S43YXDCXtWBb4yZ_MCRR-159" value="Page title" style="dashed=0;shape=rect;strokeColor=none;fillColor=#00BCD4;resizeWidth=1;resizeHeight=1;fontSize=20;fontColor=#FFFFFF;spacingTop=9;verticalAlign=top;align=left;spacingLeft=72;whiteSpace=wrap;html=1;" parent="S43YXDCXtWBb4yZ_MCRR-154" vertex="1">
          <mxGeometry width="758" height="120" relative="1" as="geometry">
            <mxPoint y="32" as="offset" />
          </mxGeometry>
        </mxCell>
        <mxCell id="S43YXDCXtWBb4yZ_MCRR-160" value="" style="dashed=0;shape=mxgraph.gmdl.preferences;strokeColor=none;fillColor=#ffffff;" parent="S43YXDCXtWBb4yZ_MCRR-159" vertex="1">
          <mxGeometry width="24" height="16" relative="1" as="geometry">
            <mxPoint x="16" y="20" as="offset" />
          </mxGeometry>
        </mxCell>
        <mxCell id="S43YXDCXtWBb4yZ_MCRR-161" value="WEB" style="text;fontSize=13;fontColor=#FFFFFF;verticalAlign=middle;align=center;whiteSpace=wrap;html=1;" parent="S43YXDCXtWBb4yZ_MCRR-159" vertex="1">
          <mxGeometry y="1" width="74" height="48" relative="1" as="geometry">
            <mxPoint x="68" y="-48" as="offset" />
          </mxGeometry>
        </mxCell>
        <mxCell id="S43YXDCXtWBb4yZ_MCRR-162" value="SHOPPING" style="text;fontSize=13;fontColor=#FFFFFF;verticalAlign=middle;align=center;textOpacity=80;whiteSpace=wrap;html=1;" parent="S43YXDCXtWBb4yZ_MCRR-159" vertex="1">
          <mxGeometry y="1" width="108" height="48" relative="1" as="geometry">
            <mxPoint x="142" y="-48" as="offset" />
          </mxGeometry>
        </mxCell>
        <mxCell id="S43YXDCXtWBb4yZ_MCRR-163" value="VIDEOS" style="text;fontSize=13;fontColor=#FFFFFF;verticalAlign=middle;align=center;textOpacity=80;whiteSpace=wrap;html=1;" parent="S43YXDCXtWBb4yZ_MCRR-159" vertex="1">
          <mxGeometry y="1" width="98" height="48" relative="1" as="geometry">
            <mxPoint x="250" y="-48" as="offset" />
          </mxGeometry>
        </mxCell>
        <mxCell id="S43YXDCXtWBb4yZ_MCRR-164" value="IMAGES" style="text;fontSize=13;fontColor=#FFFFFF;verticalAlign=middle;align=center;textOpacity=80;whiteSpace=wrap;html=1;" parent="S43YXDCXtWBb4yZ_MCRR-159" vertex="1">
          <mxGeometry y="1" width="74" height="48" relative="1" as="geometry">
            <mxPoint x="348" y="-48" as="offset" />
          </mxGeometry>
        </mxCell>
        <mxCell id="S43YXDCXtWBb4yZ_MCRR-165" value="NEWS" style="text;fontSize=13;fontColor=#FFFFFF;verticalAlign=middle;align=center;textOpacity=80;whiteSpace=wrap;html=1;" parent="S43YXDCXtWBb4yZ_MCRR-159" vertex="1">
          <mxGeometry y="1" width="86" height="48" relative="1" as="geometry">
            <mxPoint x="422" y="-48" as="offset" />
          </mxGeometry>
        </mxCell>
        <mxCell id="S43YXDCXtWBb4yZ_MCRR-166" value="MORE" style="text;fontSize=13;fontColor=#FFFFFF;verticalAlign=middle;align=center;textOpacity=80;whiteSpace=wrap;html=1;" parent="S43YXDCXtWBb4yZ_MCRR-159" vertex="1">
          <mxGeometry y="1" width="74" height="48" relative="1" as="geometry">
            <mxPoint x="508" y="-48" as="offset" />
          </mxGeometry>
        </mxCell>
        <mxCell id="S43YXDCXtWBb4yZ_MCRR-167" value="" style="dashed=0;shape=mxgraph.gmdl.triangle;strokeColor=none;fillColor=#ffffff;opacity=70;" parent="S43YXDCXtWBb4yZ_MCRR-166" vertex="1">
          <mxGeometry x="1" y="0.5" width="10" height="5" relative="1" as="geometry">
            <mxPoint x="-10" y="-3" as="offset" />
          </mxGeometry>
        </mxCell>
        <mxCell id="S43YXDCXtWBb4yZ_MCRR-168" value="" style="dashed=0;shape=rect;strokeColor=none;fillColor=#F1FB8F;" parent="S43YXDCXtWBb4yZ_MCRR-159" vertex="1">
          <mxGeometry y="1" width="72" height="4" relative="1" as="geometry">
            <mxPoint x="68" y="-3" as="offset" />
          </mxGeometry>
        </mxCell>
        <mxCell id="S43YXDCXtWBb4yZ_MCRR-169" value="" style="dashed=0;shape=mxgraph.gmdl.search;strokeColor=#ffffff;fillColor=none;strokeWidth=2;" parent="S43YXDCXtWBb4yZ_MCRR-159" vertex="1">
          <mxGeometry x="1" width="16" height="16" relative="1" as="geometry">
            <mxPoint x="-75" y="20" as="offset" />
          </mxGeometry>
        </mxCell>
        <mxCell id="S43YXDCXtWBb4yZ_MCRR-170" value="" style="dashed=0;shape=mxgraph.gmdl.settings;strokeColor=none;fillColor=#ffffff;" parent="S43YXDCXtWBb4yZ_MCRR-159" vertex="1">
          <mxGeometry x="1" width="5" height="16" relative="1" as="geometry">
            <mxPoint x="-28" y="20" as="offset" />
          </mxGeometry>
        </mxCell>
        <mxCell id="S43YXDCXtWBb4yZ_MCRR-171" value="" style="dashed=0;outlineConnect=0;html=1;align=center;labelPosition=center;verticalLabelPosition=bottom;verticalAlign=top;shape=mxgraph.webicons.oracle;fillColor=#FA3743;gradientColor=#E10E11" parent="1" vertex="1">
          <mxGeometry x="580" y="170" width="192.64" height="200" as="geometry" />
        </mxCell>
        <mxCell id="S43YXDCXtWBb4yZ_MCRR-192" value="                      Добавить товар" style="dashed=0;shape=rect;fillColor=#f5f5f5;strokeColor=#666666;shadow=1;fontColor=#333333;fontSize=30;fontStyle=3;verticalAlign=top;spacingBottom=0;spacingLeft=16;spacingTop=15;align=left;movable=1;resizable=1;rotatable=1;deletable=1;editable=1;locked=0;connectable=1;aspect=fixed;" parent="1" vertex="1">
          <mxGeometry x="964" y="1470.0000000000002" width="724" height="280" as="geometry" />
        </mxCell>
        <mxCell id="S43YXDCXtWBb4yZ_MCRR-193" value="&lt;b style=&quot;&quot;&gt;&lt;i style=&quot;&quot;&gt;&lt;font color=&quot;#a3a3a3&quot;&gt;Название товара&lt;/font&gt;&lt;/i&gt;&lt;/b&gt;" style="text;fontSize=16;verticalAlign=middle;fillColor=#000000;whiteSpace=wrap;html=1;strokeColor=#666666;gradientColor=none;" parent="S43YXDCXtWBb4yZ_MCRR-192" vertex="1">
          <mxGeometry x="24.14" y="73" width="285.86" height="31.07" as="geometry" />
        </mxCell>
        <mxCell id="S43YXDCXtWBb4yZ_MCRR-194" value="&lt;b style=&quot;&quot;&gt;&lt;i style=&quot;&quot;&gt;&lt;font color=&quot;#b0b0b0&quot;&gt;Кол.&lt;/font&gt;&lt;/i&gt;&lt;/b&gt;" style="text;fontSize=16;verticalAlign=middle;fillColor=#000000;whiteSpace=wrap;html=1;strokeColor=#666666;gradientColor=none;" parent="S43YXDCXtWBb4yZ_MCRR-192" vertex="1">
          <mxGeometry x="320" y="73" width="68" height="31.07" as="geometry" />
        </mxCell>
        <mxCell id="S43YXDCXtWBb4yZ_MCRR-195" value="&lt;b style=&quot;&quot;&gt;&lt;i style=&quot;&quot;&gt;&lt;font color=&quot;#adadad&quot;&gt;Категория&lt;/font&gt;&lt;/i&gt;&lt;/b&gt;" style="text;fontSize=16;verticalAlign=middle;fillColor=#000000;whiteSpace=wrap;html=1;strokeColor=#666666;gradientColor=none;" parent="S43YXDCXtWBb4yZ_MCRR-192" vertex="1">
          <mxGeometry x="401" y="73.93" width="160" height="31.07" as="geometry" />
        </mxCell>
        <mxCell id="S43YXDCXtWBb4yZ_MCRR-196" value="" style="dashed=0;outlineConnect=0;html=1;align=center;labelPosition=center;verticalLabelPosition=bottom;verticalAlign=top;shape=mxgraph.webicons.oracle;fillColor=#FA3743;gradientColor=#E10E11" parent="S43YXDCXtWBb4yZ_MCRR-192" vertex="1">
          <mxGeometry x="570" y="31.9" width="136.47" height="98.1" as="geometry" />
        </mxCell>
        <mxCell id="S43YXDCXtWBb4yZ_MCRR-197" value="Отмена" style="shape=rect;fontSize=13;strokeColor=#b85450;fillColor=#f8cecc;fontStyle=1;whiteSpace=wrap;html=1;gradientColor=#ea6b66;" parent="S43YXDCXtWBb4yZ_MCRR-192" vertex="1">
          <mxGeometry x="569.47" y="200" width="137" height="47.77" as="geometry" />
        </mxCell>
        <mxCell id="S43YXDCXtWBb4yZ_MCRR-198" value="Сохранить" style="shape=rect;fontSize=13;strokeColor=#b85450;fillColor=#f8cecc;fontStyle=1;whiteSpace=wrap;html=1;gradientColor=#ea6b66;" parent="S43YXDCXtWBb4yZ_MCRR-192" vertex="1">
          <mxGeometry x="24.139999999999986" y="202.94000000000005" width="140" height="44.83" as="geometry" />
        </mxCell>
        <mxCell id="S43YXDCXtWBb4yZ_MCRR-199" value="&lt;span style=&quot;font-weight: 700; text-align: center;&quot;&gt;&lt;font size=&quot;1&quot; style=&quot;&quot; color=&quot;#ffffff&quot;&gt;&lt;i style=&quot;font-size: 14px;&quot;&gt;Охота и Рыбалка&lt;/i&gt;&lt;/font&gt;&lt;/span&gt;" style="text;fontSize=16;verticalAlign=middle;fillColor=#000000;whiteSpace=wrap;html=1;strokeColor=#666666;gradientColor=none;aspect=fixed;" parent="1" vertex="1">
          <mxGeometry x="1363.9972928176794" y="1573.55" width="161.54696132596686" height="28.96" as="geometry" />
        </mxCell>
        <mxCell id="S43YXDCXtWBb4yZ_MCRR-200" value="&lt;span style=&quot;font-weight: 700; text-align: center;&quot;&gt;&lt;font size=&quot;1&quot; style=&quot;&quot; color=&quot;#ffffff&quot;&gt;&lt;i style=&quot;font-size: 14px;&quot;&gt;Строй. Материалы&lt;/i&gt;&lt;/font&gt;&lt;/span&gt;" style="text;fontSize=16;verticalAlign=middle;fillColor=#000000;whiteSpace=wrap;html=1;strokeColor=#666666;gradientColor=none;aspect=fixed;" parent="1" vertex="1">
          <mxGeometry x="1363.9972928176794" y="1602.51" width="161.54696132596686" height="28.96" as="geometry" />
        </mxCell>
        <mxCell id="S43YXDCXtWBb4yZ_MCRR-201" value="&lt;span style=&quot;font-weight: 700; text-align: center;&quot;&gt;&lt;font size=&quot;1&quot; style=&quot;&quot; color=&quot;#ffffff&quot;&gt;&lt;i style=&quot;font-size: 14px;&quot;&gt;Игрушки&lt;/i&gt;&lt;/font&gt;&lt;/span&gt;" style="text;fontSize=16;verticalAlign=middle;fillColor=#000000;whiteSpace=wrap;html=1;strokeColor=#666666;gradientColor=none;aspect=fixed;" parent="1" vertex="1">
          <mxGeometry x="1363.9972928176794" y="1631.47" width="161.54696132596686" height="28.96" as="geometry" />
        </mxCell>
        <mxCell id="S43YXDCXtWBb4yZ_MCRR-202" value="&lt;span style=&quot;font-weight: 700; text-align: center;&quot;&gt;&lt;font color=&quot;#ffffff&quot; style=&quot;font-size: 14px;&quot;&gt;&lt;i&gt;Канц. Товары&lt;/i&gt;&lt;/font&gt;&lt;/span&gt;" style="text;fontSize=16;verticalAlign=middle;fillColor=#000000;whiteSpace=wrap;html=1;strokeColor=#666666;gradientColor=none;aspect=fixed;" parent="1" vertex="1">
          <mxGeometry x="1363.9972928176794" y="1660.43" width="161.54696132596686" height="28.96" as="geometry" />
        </mxCell>
        <mxCell id="S43YXDCXtWBb4yZ_MCRR-203" value="&lt;span style=&quot;font-weight: 700; text-align: center;&quot;&gt;&lt;font style=&quot;font-size: 14px;&quot; color=&quot;#ffffff&quot;&gt;&lt;i&gt;Продукты питания&lt;/i&gt;&lt;/font&gt;&lt;/span&gt;" style="text;fontSize=16;verticalAlign=middle;fillColor=#000000;whiteSpace=wrap;html=1;strokeColor=#666666;gradientColor=none;aspect=fixed;" parent="1" vertex="1">
          <mxGeometry x="1363.9972928176794" y="1689.39" width="161.54696132596686" height="28.96" as="geometry" />
        </mxCell>
        <mxCell id="S43YXDCXtWBb4yZ_MCRR-204" value="&lt;span style=&quot;font-weight: 700; text-align: center;&quot;&gt;&lt;font size=&quot;1&quot; style=&quot;&quot; color=&quot;#ffffff&quot;&gt;&lt;i style=&quot;font-size: 14px;&quot;&gt;Хоз. Товары&lt;/i&gt;&lt;/font&gt;&lt;/span&gt;" style="text;fontSize=16;verticalAlign=middle;fillColor=#000000;whiteSpace=wrap;html=1;strokeColor=#666666;gradientColor=none;aspect=fixed;" parent="1" vertex="1">
          <mxGeometry x="1364.71" y="1719.1200000000001" width="160" height="28.96" as="geometry" />
        </mxCell>
        <mxCell id="S43YXDCXtWBb4yZ_MCRR-205" value="&lt;span style=&quot;font-weight: 700; text-align: center;&quot;&gt;&lt;font color=&quot;#ffffff&quot; style=&quot;font-size: 14px;&quot;&gt;&lt;i&gt;Одежда&lt;/i&gt;&lt;/font&gt;&lt;/span&gt;" style="text;fontSize=16;verticalAlign=middle;fillColor=#000000;whiteSpace=wrap;html=1;strokeColor=#666666;gradientColor=none;aspect=fixed;" parent="1" vertex="1">
          <mxGeometry x="1364.71" y="1749.1200000000001" width="160" height="28.96" as="geometry" />
        </mxCell>
        <mxCell id="S43YXDCXtWBb4yZ_MCRR-206" value="&lt;span style=&quot;font-weight: 700; text-align: center;&quot;&gt;&lt;font color=&quot;#ffffff&quot; style=&quot;font-size: 14px;&quot;&gt;&lt;i&gt;Мебель&lt;/i&gt;&lt;/font&gt;&lt;/span&gt;" style="text;fontSize=16;verticalAlign=middle;fillColor=#000000;whiteSpace=wrap;html=1;strokeColor=#666666;gradientColor=none;aspect=fixed;" parent="1" vertex="1">
          <mxGeometry x="1364.71" y="1778.0800000000002" width="160" height="28.96" as="geometry" />
        </mxCell>
        <mxCell id="S43YXDCXtWBb4yZ_MCRR-207" value="&lt;span style=&quot;font-size: 14px; font-weight: 700; text-align: center;&quot;&gt;&lt;font color=&quot;#ffffff&quot;&gt;&lt;i&gt;Электроника&lt;/i&gt;&lt;/font&gt;&lt;/span&gt;" style="text;fontSize=16;verticalAlign=middle;fillColor=#000000;whiteSpace=wrap;html=1;strokeColor=#666666;gradientColor=none;aspect=fixed;" parent="1" vertex="1">
          <mxGeometry x="1364.71" y="1807.0400000000002" width="160" height="28.96" as="geometry" />
        </mxCell>
        <mxCell id="S43YXDCXtWBb4yZ_MCRR-208" value="&lt;span style=&quot;font-weight: 700; text-align: center;&quot;&gt;&lt;font color=&quot;#ffffff&quot; style=&quot;font-size: 14px;&quot;&gt;&lt;i&gt;Инструменты&lt;/i&gt;&lt;/font&gt;&lt;/span&gt;" style="text;fontSize=16;verticalAlign=middle;fillColor=#000000;whiteSpace=wrap;html=1;strokeColor=#666666;gradientColor=none;aspect=fixed;" parent="1" vertex="1">
          <mxGeometry x="1364.71" y="1836.0000000000002" width="160" height="28.96" as="geometry" />
        </mxCell>
        <mxCell id="S43YXDCXtWBb4yZ_MCRR-209" value="&lt;span style=&quot;font-weight: 700; text-align: center;&quot;&gt;&lt;font color=&quot;#ffffff&quot; style=&quot;font-size: 14px;&quot;&gt;&lt;i&gt;Бытовая химия&lt;/i&gt;&lt;/font&gt;&lt;/span&gt;" style="text;fontSize=16;verticalAlign=middle;fillColor=#000000;whiteSpace=wrap;html=1;strokeColor=#666666;gradientColor=none;aspect=fixed;" parent="1" vertex="1">
          <mxGeometry x="1364.71" y="1864.9600000000003" width="160" height="28.96" as="geometry" />
        </mxCell>
        <mxCell id="S43YXDCXtWBb4yZ_MCRR-210" value="&lt;span style=&quot;font-weight: 700; text-align: center;&quot;&gt;&lt;font color=&quot;#ffffff&quot; style=&quot;font-size: 14px;&quot;&gt;&lt;i&gt;Техника&lt;/i&gt;&lt;/font&gt;&lt;/span&gt;" style="text;fontSize=16;verticalAlign=middle;fillColor=#000000;whiteSpace=wrap;html=1;strokeColor=#666666;gradientColor=none;aspect=fixed;" parent="1" vertex="1">
          <mxGeometry x="1364.71" y="1893.9200000000003" width="160" height="28.96" as="geometry" />
        </mxCell>
        <mxCell id="S43YXDCXtWBb4yZ_MCRR-212" value="" style="shape=ellipse;fillColor=#f8cecc;strokeColor=#b85450;shadow=1;aspect=fixed;sketch=0;html=1;labelPosition=center;verticalLabelPosition=bottom;align=center;verticalAlign=top;gradientColor=#ea6b66;" parent="1" vertex="1">
          <mxGeometry x="178.81" y="3884.75" width="34.81" height="34.81" as="geometry" />
        </mxCell>
        <mxCell id="S43YXDCXtWBb4yZ_MCRR-213" value="" style="dashed=0;html=1;shape=mxgraph.gmdl.plus;strokeColor=#ffffff;strokeWidth=2;shadow=0;sketch=0;" parent="S43YXDCXtWBb4yZ_MCRR-212" vertex="1">
          <mxGeometry x="12.432142857142859" y="12.432142857142859" width="9.94571428571429" height="9.94571428571429" as="geometry" />
        </mxCell>
        <mxCell id="S43YXDCXtWBb4yZ_MCRR-214" value="&lt;b&gt;&lt;font style=&quot;font-size: 18px;&quot;&gt;Добавить товар&lt;/font&gt;&lt;/b&gt;" style="text;fontSize=16;verticalAlign=middle;strokeColor=none;fillColor=none;whiteSpace=wrap;html=1;" parent="1" vertex="1">
          <mxGeometry x="231.88935611038107" y="3886.8372727272726" width="255.92115637319316" height="32.72727272727273" as="geometry" />
        </mxCell>
        <mxCell id="m0QXF2XwWmVyPDSkMAsk-42" value="                   Редактировать товар" style="dashed=0;shape=rect;fillColor=#f5f5f5;strokeColor=#666666;shadow=1;fontColor=#333333;fontSize=30;fontStyle=3;verticalAlign=top;spacingBottom=0;spacingLeft=16;spacingTop=15;align=left;aspect=fixed;movable=1;resizable=1;rotatable=1;deletable=1;editable=1;locked=0;connectable=1;" parent="1" vertex="1">
          <mxGeometry x="964" y="520.0000000000002" width="724" height="280" as="geometry" />
        </mxCell>
        <mxCell id="m0QXF2XwWmVyPDSkMAsk-43" value="&lt;b style=&quot;&quot;&gt;&lt;i style=&quot;&quot;&gt;&lt;font color=&quot;#a3a3a3&quot;&gt;Название товара&lt;/font&gt;&lt;/i&gt;&lt;/b&gt;" style="text;fontSize=16;verticalAlign=middle;fillColor=#000000;whiteSpace=wrap;html=1;strokeColor=#666666;gradientColor=none;" parent="m0QXF2XwWmVyPDSkMAsk-42" vertex="1">
          <mxGeometry x="24.14" y="73" width="245.86" height="31.07" as="geometry" />
        </mxCell>
        <mxCell id="m0QXF2XwWmVyPDSkMAsk-44" value="&lt;b style=&quot;&quot;&gt;&lt;i style=&quot;&quot;&gt;&lt;font color=&quot;#b0b0b0&quot;&gt;Кол.&lt;/font&gt;&lt;/i&gt;&lt;/b&gt;" style="text;fontSize=16;verticalAlign=middle;fillColor=#000000;whiteSpace=wrap;html=1;strokeColor=#666666;gradientColor=none;" parent="m0QXF2XwWmVyPDSkMAsk-42" vertex="1">
          <mxGeometry x="280" y="73" width="60" height="31.07" as="geometry" />
        </mxCell>
        <mxCell id="m0QXF2XwWmVyPDSkMAsk-45" value="&lt;b style=&quot;&quot;&gt;&lt;i style=&quot;&quot;&gt;&lt;font color=&quot;#adadad&quot;&gt;Категория&lt;/font&gt;&lt;/i&gt;&lt;/b&gt;" style="text;fontSize=16;verticalAlign=middle;fillColor=#000000;whiteSpace=wrap;html=1;strokeColor=#666666;gradientColor=none;" parent="m0QXF2XwWmVyPDSkMAsk-42" vertex="1">
          <mxGeometry x="350" y="73" width="160" height="31.07" as="geometry" />
        </mxCell>
        <mxCell id="m0QXF2XwWmVyPDSkMAsk-46" value="" style="dashed=0;outlineConnect=0;html=1;align=center;labelPosition=center;verticalLabelPosition=bottom;verticalAlign=top;shape=mxgraph.webicons.oracle;fillColor=#FA3743;gradientColor=#E10E11" parent="m0QXF2XwWmVyPDSkMAsk-42" vertex="1">
          <mxGeometry x="570" y="31.9" width="136.47" height="98.1" as="geometry" />
        </mxCell>
        <mxCell id="m0QXF2XwWmVyPDSkMAsk-47" value="Отмена" style="shape=rect;fontSize=13;strokeColor=#b85450;fillColor=#f8cecc;fontStyle=1;whiteSpace=wrap;html=1;gradientColor=#ea6b66;" parent="m0QXF2XwWmVyPDSkMAsk-42" vertex="1">
          <mxGeometry x="569.47" y="200" width="137" height="47.77" as="geometry" />
        </mxCell>
        <mxCell id="m0QXF2XwWmVyPDSkMAsk-48" value="Сохранить" style="shape=rect;fontSize=13;strokeColor=#b85450;fillColor=#f8cecc;fontStyle=1;whiteSpace=wrap;html=1;gradientColor=#ea6b66;" parent="m0QXF2XwWmVyPDSkMAsk-42" vertex="1">
          <mxGeometry x="24.139999999999986" y="202.94000000000005" width="140" height="44.83" as="geometry" />
        </mxCell>
        <mxCell id="m0QXF2XwWmVyPDSkMAsk-50" value="&lt;span style=&quot;text-align: center;&quot;&gt;&lt;font size=&quot;1&quot; style=&quot;&quot; color=&quot;#ffffff&quot;&gt;&lt;i style=&quot;&quot;&gt;&lt;b style=&quot;font-size: 14px;&quot;&gt;Сад и огород&lt;/b&gt;&lt;/i&gt;&lt;/font&gt;&lt;/span&gt;" style="text;fontSize=16;verticalAlign=middle;fillColor=#000000;whiteSpace=wrap;html=1;strokeColor=#666666;gradientColor=none;aspect=fixed;" parent="m0QXF2XwWmVyPDSkMAsk-42" vertex="1">
          <mxGeometry x="349.9972928176794" y="104.06999999999925" width="161.54696132596686" height="28.96" as="geometry" />
        </mxCell>
        <mxCell id="m0QXF2XwWmVyPDSkMAsk-66" value="" style="shape=ellipse;fillColor=#f8cecc;strokeColor=#b85450;shadow=1;aspect=fixed;sketch=0;html=1;labelPosition=center;verticalLabelPosition=bottom;align=center;verticalAlign=top;gradientColor=#ea6b66;movable=1;resizable=1;rotatable=1;deletable=1;editable=1;locked=0;connectable=1;" parent="m0QXF2XwWmVyPDSkMAsk-42" vertex="1">
          <mxGeometry x="520.0038987688099" y="73.00199216472015" width="29.70769427079802" height="29.70769427079802" as="geometry" />
        </mxCell>
        <mxCell id="m0QXF2XwWmVyPDSkMAsk-67" value="" style="dashed=0;html=1;shape=mxgraph.gmdl.plus;strokeColor=#ffffff;strokeWidth=2;shadow=0;sketch=0;" parent="m0QXF2XwWmVyPDSkMAsk-66" vertex="1">
          <mxGeometry x="10.609890810999289" y="10.609890810999289" width="8.48791264879943" height="8.48791264879943" as="geometry" />
        </mxCell>
        <mxCell id="m0QXF2XwWmVyPDSkMAsk-49" value="&lt;span style=&quot;font-weight: 700; text-align: center;&quot;&gt;&lt;font size=&quot;1&quot; style=&quot;&quot; color=&quot;#ffffff&quot;&gt;&lt;i style=&quot;font-size: 14px;&quot;&gt;Охота и Рыбалка&lt;/i&gt;&lt;/font&gt;&lt;/span&gt;" style="text;fontSize=16;verticalAlign=middle;fillColor=#000000;whiteSpace=wrap;html=1;strokeColor=#666666;gradientColor=none;aspect=fixed;" parent="1" vertex="1">
          <mxGeometry x="1313.9972928176794" y="649.9999999999995" width="161.54696132596686" height="28.96" as="geometry" />
        </mxCell>
        <mxCell id="m0QXF2XwWmVyPDSkMAsk-51" value="&lt;span style=&quot;font-weight: 700; text-align: center;&quot;&gt;&lt;font size=&quot;1&quot; style=&quot;&quot; color=&quot;#ffffff&quot;&gt;&lt;i style=&quot;font-size: 14px;&quot;&gt;Строй. Материалы&lt;/i&gt;&lt;/font&gt;&lt;/span&gt;" style="text;fontSize=16;verticalAlign=middle;fillColor=#000000;whiteSpace=wrap;html=1;strokeColor=#666666;gradientColor=none;aspect=fixed;" parent="1" vertex="1">
          <mxGeometry x="1313.9972928176794" y="678.9599999999996" width="161.54696132596686" height="28.96" as="geometry" />
        </mxCell>
        <mxCell id="m0QXF2XwWmVyPDSkMAsk-52" value="&lt;span style=&quot;font-weight: 700; text-align: center;&quot;&gt;&lt;font size=&quot;1&quot; style=&quot;&quot; color=&quot;#ffffff&quot;&gt;&lt;i style=&quot;font-size: 14px;&quot;&gt;Игрушки&lt;/i&gt;&lt;/font&gt;&lt;/span&gt;" style="text;fontSize=16;verticalAlign=middle;fillColor=#000000;whiteSpace=wrap;html=1;strokeColor=#666666;gradientColor=none;aspect=fixed;" parent="1" vertex="1">
          <mxGeometry x="1313.9972928176794" y="707.9199999999996" width="161.54696132596686" height="28.96" as="geometry" />
        </mxCell>
        <mxCell id="m0QXF2XwWmVyPDSkMAsk-53" value="&lt;span style=&quot;font-weight: 700; text-align: center;&quot;&gt;&lt;font color=&quot;#ffffff&quot; style=&quot;font-size: 14px;&quot;&gt;&lt;i&gt;Канц. Товары&lt;/i&gt;&lt;/font&gt;&lt;/span&gt;" style="text;fontSize=16;verticalAlign=middle;fillColor=#000000;whiteSpace=wrap;html=1;strokeColor=#666666;gradientColor=none;aspect=fixed;" parent="1" vertex="1">
          <mxGeometry x="1313.9972928176794" y="736.8799999999997" width="161.54696132596686" height="28.96" as="geometry" />
        </mxCell>
        <mxCell id="m0QXF2XwWmVyPDSkMAsk-54" value="&lt;span style=&quot;font-weight: 700; text-align: center;&quot;&gt;&lt;font style=&quot;font-size: 14px;&quot; color=&quot;#ffffff&quot;&gt;&lt;i&gt;Продукты питания&lt;/i&gt;&lt;/font&gt;&lt;/span&gt;" style="text;fontSize=16;verticalAlign=middle;fillColor=#000000;whiteSpace=wrap;html=1;strokeColor=#666666;gradientColor=none;aspect=fixed;" parent="1" vertex="1">
          <mxGeometry x="1313.9972928176794" y="765.8399999999997" width="161.54696132596686" height="28.96" as="geometry" />
        </mxCell>
        <mxCell id="m0QXF2XwWmVyPDSkMAsk-55" value="&lt;span style=&quot;font-weight: 700; text-align: center;&quot;&gt;&lt;font size=&quot;1&quot; style=&quot;&quot; color=&quot;#ffffff&quot;&gt;&lt;i style=&quot;font-size: 14px;&quot;&gt;Хоз. Товары&lt;/i&gt;&lt;/font&gt;&lt;/span&gt;" style="text;fontSize=16;verticalAlign=middle;fillColor=#000000;whiteSpace=wrap;html=1;strokeColor=#666666;gradientColor=none;aspect=fixed;" parent="1" vertex="1">
          <mxGeometry x="1314.71" y="795.5699999999997" width="160" height="28.96" as="geometry" />
        </mxCell>
        <mxCell id="m0QXF2XwWmVyPDSkMAsk-56" value="&lt;span style=&quot;font-weight: 700; text-align: center;&quot;&gt;&lt;font color=&quot;#ffffff&quot; style=&quot;font-size: 14px;&quot;&gt;&lt;i&gt;Одежда&lt;/i&gt;&lt;/font&gt;&lt;/span&gt;" style="text;fontSize=16;verticalAlign=middle;fillColor=#000000;whiteSpace=wrap;html=1;strokeColor=#666666;gradientColor=none;aspect=fixed;" parent="1" vertex="1">
          <mxGeometry x="1314.71" y="825.5699999999997" width="160" height="28.96" as="geometry" />
        </mxCell>
        <mxCell id="m0QXF2XwWmVyPDSkMAsk-57" value="&lt;span style=&quot;font-weight: 700; text-align: center;&quot;&gt;&lt;font color=&quot;#ffffff&quot; style=&quot;font-size: 14px;&quot;&gt;&lt;i&gt;Мебель&lt;/i&gt;&lt;/font&gt;&lt;/span&gt;" style="text;fontSize=16;verticalAlign=middle;fillColor=#000000;whiteSpace=wrap;html=1;strokeColor=#666666;gradientColor=none;aspect=fixed;" parent="1" vertex="1">
          <mxGeometry x="1314.71" y="854.5299999999997" width="160" height="28.96" as="geometry" />
        </mxCell>
        <mxCell id="m0QXF2XwWmVyPDSkMAsk-58" value="&lt;span style=&quot;font-size: 14px; font-weight: 700; text-align: center;&quot;&gt;&lt;font color=&quot;#ffffff&quot;&gt;&lt;i&gt;Электроника&lt;/i&gt;&lt;/font&gt;&lt;/span&gt;" style="text;fontSize=16;verticalAlign=middle;fillColor=#000000;whiteSpace=wrap;html=1;strokeColor=#666666;gradientColor=none;aspect=fixed;" parent="1" vertex="1">
          <mxGeometry x="1314.71" y="883.4899999999998" width="160" height="28.96" as="geometry" />
        </mxCell>
        <mxCell id="m0QXF2XwWmVyPDSkMAsk-59" value="&lt;span style=&quot;font-weight: 700; text-align: center;&quot;&gt;&lt;font color=&quot;#ffffff&quot; style=&quot;font-size: 14px;&quot;&gt;&lt;i&gt;Инструменты&lt;/i&gt;&lt;/font&gt;&lt;/span&gt;" style="text;fontSize=16;verticalAlign=middle;fillColor=#000000;whiteSpace=wrap;html=1;strokeColor=#666666;gradientColor=none;aspect=fixed;" parent="1" vertex="1">
          <mxGeometry x="1314.71" y="912.4499999999998" width="160" height="28.96" as="geometry" />
        </mxCell>
        <mxCell id="m0QXF2XwWmVyPDSkMAsk-60" value="&lt;span style=&quot;font-weight: 700; text-align: center;&quot;&gt;&lt;font color=&quot;#ffffff&quot; style=&quot;font-size: 14px;&quot;&gt;&lt;i&gt;Бытовая химия&lt;/i&gt;&lt;/font&gt;&lt;/span&gt;" style="text;fontSize=16;verticalAlign=middle;fillColor=#000000;whiteSpace=wrap;html=1;strokeColor=#666666;gradientColor=none;aspect=fixed;" parent="1" vertex="1">
          <mxGeometry x="1314.71" y="941.4099999999999" width="160" height="28.96" as="geometry" />
        </mxCell>
        <mxCell id="m0QXF2XwWmVyPDSkMAsk-61" value="&lt;span style=&quot;font-weight: 700; text-align: center;&quot;&gt;&lt;font color=&quot;#ffffff&quot; style=&quot;font-size: 14px;&quot;&gt;&lt;i&gt;Техника&lt;/i&gt;&lt;/font&gt;&lt;/span&gt;" style="text;fontSize=16;verticalAlign=middle;fillColor=#000000;whiteSpace=wrap;html=1;strokeColor=#666666;gradientColor=none;aspect=fixed;" parent="1" vertex="1">
          <mxGeometry x="1314.71" y="970.3699999999999" width="160" height="28.96" as="geometry" />
        </mxCell>
        <mxCell id="TyV7Gub-jsDWzKIBqhkX-31" value="                   Список товаров" style="dashed=0;shape=rect;fillColor=#f5f5f5;strokeColor=#666666;shadow=1;fontColor=#333333;fontSize=30;fontStyle=3;verticalAlign=top;spacingBottom=0;spacingLeft=16;spacingTop=15;align=left;" vertex="1" parent="1">
          <mxGeometry x="130.5" y="2100" width="669" height="610" as="geometry" />
        </mxCell>
        <mxCell id="TyV7Gub-jsDWzKIBqhkX-32" value="&lt;b&gt;&lt;font style=&quot;font-size: 18px;&quot;&gt;Огурцы, 7кг, Продукты питания&lt;/font&gt;&lt;/b&gt;" style="text;fontSize=16;verticalAlign=middle;strokeColor=none;fillColor=none;whiteSpace=wrap;html=1;" vertex="1" parent="1">
          <mxGeometry x="204.5" y="2200" width="340" height="32.73" as="geometry" />
        </mxCell>
        <mxCell id="TyV7Gub-jsDWzKIBqhkX-33" value="" style="dashed=0;labelPosition=right;align=left;shape=mxgraph.gmdl.checkbox;strokeColor=#666666;fillColor=none;strokeWidth=2;aspect=fixed;sketch=0;html=1;" vertex="1" parent="1">
          <mxGeometry x="174.5" y="2209.73" width="16" height="16" as="geometry" />
        </mxCell>
        <mxCell id="TyV7Gub-jsDWzKIBqhkX-34" value="&lt;b&gt;&lt;font style=&quot;font-size: 18px;&quot;&gt;Шапка, 1 шт, Одежда&lt;/font&gt;&lt;/b&gt;" style="text;fontSize=16;verticalAlign=middle;strokeColor=none;fillColor=none;whiteSpace=wrap;html=1;" vertex="1" parent="1">
          <mxGeometry x="204.5" y="2232.73" width="340" height="32.73" as="geometry" />
        </mxCell>
        <mxCell id="TyV7Gub-jsDWzKIBqhkX-35" value="&lt;b&gt;&lt;font style=&quot;font-size: 18px;&quot;&gt;Шкаф, 1 шт, Мебель&lt;/font&gt;&lt;/b&gt;" style="text;fontSize=16;verticalAlign=middle;strokeColor=none;fillColor=none;whiteSpace=wrap;html=1;" vertex="1" parent="1">
          <mxGeometry x="204.5" y="2265.46" width="350" height="32.73" as="geometry" />
        </mxCell>
        <mxCell id="TyV7Gub-jsDWzKIBqhkX-36" value="&lt;b&gt;&lt;font color=&quot;#000033&quot; style=&quot;font-size: 18px;&quot;&gt;Бананы, 2кг, Продукты питания&lt;/font&gt;&lt;/b&gt;" style="text;fontSize=16;verticalAlign=middle;strokeColor=none;fillColor=none;whiteSpace=wrap;html=1;" vertex="1" parent="1">
          <mxGeometry x="204.5" y="2300" width="350" height="32.73" as="geometry" />
        </mxCell>
        <mxCell id="TyV7Gub-jsDWzKIBqhkX-37" value="&lt;b&gt;&lt;font style=&quot;font-size: 18px;&quot;&gt;Картошка, 12кг, Продукты питания&lt;/font&gt;&lt;/b&gt;" style="text;fontSize=16;verticalAlign=middle;strokeColor=none;fillColor=none;whiteSpace=wrap;html=1;" vertex="1" parent="1">
          <mxGeometry x="204.5" y="2332.73" width="340" height="32.73" as="geometry" />
        </mxCell>
        <mxCell id="TyV7Gub-jsDWzKIBqhkX-38" value="&lt;b&gt;&lt;font style=&quot;font-size: 18px;&quot;&gt;Lada Vesta, 1 шт, Техника&lt;/font&gt;&lt;/b&gt;" style="text;fontSize=16;verticalAlign=middle;strokeColor=none;fillColor=none;whiteSpace=wrap;html=1;" vertex="1" parent="1">
          <mxGeometry x="204.5" y="2365.46" width="350" height="32.73" as="geometry" />
        </mxCell>
        <mxCell id="TyV7Gub-jsDWzKIBqhkX-39" value="&lt;b&gt;&lt;font style=&quot;font-size: 18px;&quot;&gt;Чебуреки, 4 шт, Продукты питания&lt;/font&gt;&lt;/b&gt;" style="text;fontSize=16;verticalAlign=middle;strokeColor=none;fillColor=none;whiteSpace=wrap;html=1;" vertex="1" parent="1">
          <mxGeometry x="204.5" y="2400" width="320" height="32.73" as="geometry" />
        </mxCell>
        <mxCell id="TyV7Gub-jsDWzKIBqhkX-40" value="&lt;b&gt;&lt;font style=&quot;font-size: 18px;&quot;&gt;Топор, 1 шт, Инструменты&lt;/font&gt;&lt;/b&gt;" style="text;fontSize=16;verticalAlign=middle;strokeColor=none;fillColor=none;whiteSpace=wrap;html=1;" vertex="1" parent="1">
          <mxGeometry x="204.5" y="2430" width="320" height="32.73" as="geometry" />
        </mxCell>
        <mxCell id="TyV7Gub-jsDWzKIBqhkX-41" value="&lt;b&gt;&lt;font style=&quot;font-size: 18px;&quot;&gt;Ноутбук, 1 шт, Электроника&lt;/font&gt;&lt;/b&gt;" style="text;fontSize=16;verticalAlign=middle;strokeColor=none;fillColor=none;whiteSpace=wrap;html=1;" vertex="1" parent="1">
          <mxGeometry x="204.5" y="2460" width="320" height="32.73" as="geometry" />
        </mxCell>
        <mxCell id="TyV7Gub-jsDWzKIBqhkX-42" value="" style="dashed=0;labelPosition=right;align=left;shape=mxgraph.gmdl.checkbox;strokeColor=#666666;fillColor=none;strokeWidth=2;aspect=fixed;sketch=0;html=1;" vertex="1" parent="1">
          <mxGeometry x="174.5" y="2241.09" width="16" height="16" as="geometry" />
        </mxCell>
        <mxCell id="TyV7Gub-jsDWzKIBqhkX-43" value="" style="dashed=0;labelPosition=right;align=left;shape=mxgraph.gmdl.checkbox;strokeColor=#666666;fillColor=none;strokeWidth=2;aspect=fixed;sketch=0;html=1;" vertex="1" parent="1">
          <mxGeometry x="174.5" y="2273.82" width="16" height="16" as="geometry" />
        </mxCell>
        <mxCell id="TyV7Gub-jsDWzKIBqhkX-44" value="" style="dashed=0;labelPosition=right;align=left;shape=mxgraph.gmdl.checkbox;strokeColor=#666666;fillColor=none;strokeWidth=2;aspect=fixed;sketch=0;html=1;" vertex="1" parent="1">
          <mxGeometry x="174.5" y="2308.36" width="16" height="16" as="geometry" />
        </mxCell>
        <mxCell id="TyV7Gub-jsDWzKIBqhkX-45" value="" style="dashed=0;labelPosition=right;align=left;shape=mxgraph.gmdl.checkbox;strokeColor=#666666;fillColor=none;strokeWidth=2;aspect=fixed;sketch=0;html=1;" vertex="1" parent="1">
          <mxGeometry x="174.5" y="2341.09" width="16" height="16" as="geometry" />
        </mxCell>
        <mxCell id="TyV7Gub-jsDWzKIBqhkX-46" value="" style="dashed=0;labelPosition=right;align=left;shape=mxgraph.gmdl.checkbox;strokeColor=#666666;fillColor=none;strokeWidth=2;aspect=fixed;sketch=0;html=1;" vertex="1" parent="1">
          <mxGeometry x="174.5" y="2373.82" width="16" height="16" as="geometry" />
        </mxCell>
        <mxCell id="TyV7Gub-jsDWzKIBqhkX-47" value="" style="dashed=0;labelPosition=right;align=left;shape=mxgraph.gmdl.checkbox;strokeColor=#666666;fillColor=none;strokeWidth=2;aspect=fixed;sketch=0;html=1;" vertex="1" parent="1">
          <mxGeometry x="174.5" y="2408.36" width="16" height="16" as="geometry" />
        </mxCell>
        <mxCell id="TyV7Gub-jsDWzKIBqhkX-48" value="" style="dashed=0;labelPosition=right;align=left;shape=mxgraph.gmdl.checkbox;strokeColor=#666666;fillColor=none;strokeWidth=2;aspect=fixed;sketch=0;html=1;" vertex="1" parent="1">
          <mxGeometry x="174.5" y="2438.36" width="16" height="16" as="geometry" />
        </mxCell>
        <mxCell id="TyV7Gub-jsDWzKIBqhkX-49" value="" style="dashed=0;labelPosition=right;align=left;shape=mxgraph.gmdl.checkbox;strokeColor=#666666;fillColor=none;strokeWidth=2;aspect=fixed;sketch=0;html=1;" vertex="1" parent="1">
          <mxGeometry x="174.5" y="2468.36" width="16" height="16" as="geometry" />
        </mxCell>
        <mxCell id="TyV7Gub-jsDWzKIBqhkX-50" value="Отмена" style="shape=rect;fontSize=13;strokeColor=#b85450;fillColor=#f8cecc;fontStyle=1;whiteSpace=wrap;html=1;gradientColor=#ea6b66;" vertex="1" parent="1">
          <mxGeometry x="594.5" y="2626.52" width="184" height="47.77" as="geometry" />
        </mxCell>
        <mxCell id="TyV7Gub-jsDWzKIBqhkX-51" value="Удалить" style="shape=rect;fontSize=13;strokeColor=#b85450;fillColor=#f8cecc;fontStyle=1;whiteSpace=wrap;html=1;gradientColor=#ea6b66;" vertex="1" parent="1">
          <mxGeometry x="150.5" y="2626.52" width="180.5" height="47.77" as="geometry" />
        </mxCell>
        <mxCell id="TyV7Gub-jsDWzKIBqhkX-52" value="Редактировать" style="shape=rect;fontSize=13;strokeColor=#b85450;fillColor=#f8cecc;fontStyle=1;whiteSpace=wrap;html=1;gradientColor=#ea6b66;" vertex="1" parent="1">
          <mxGeometry x="364.5" y="2626.52" width="200" height="47.77" as="geometry" />
        </mxCell>
        <mxCell id="TyV7Gub-jsDWzKIBqhkX-53" value="" style="dashed=0;outlineConnect=0;html=1;align=center;labelPosition=center;verticalLabelPosition=bottom;verticalAlign=top;shape=mxgraph.webicons.oracle;fillColor=#FA3743;gradientColor=#E10E11" vertex="1" parent="1">
          <mxGeometry x="564.5" y="2210" width="214" height="170" as="geometry" />
        </mxCell>
        <mxCell id="TyV7Gub-jsDWzKIBqhkX-54" value="&lt;b&gt;&lt;font style=&quot;font-size: 18px;&quot;&gt;Добавить товар&lt;/font&gt;&lt;/b&gt;" style="text;fontSize=16;verticalAlign=middle;strokeColor=none;fillColor=none;whiteSpace=wrap;html=1;" vertex="1" parent="1">
          <mxGeometry x="220.4993561103811" y="2549.547272727273" width="255.92115637319316" height="32.72727272727273" as="geometry" />
        </mxCell>
        <mxCell id="TyV7Gub-jsDWzKIBqhkX-55" value="" style="shape=ellipse;fillColor=#f8cecc;strokeColor=#b85450;shadow=1;aspect=fixed;sketch=0;html=1;labelPosition=center;verticalLabelPosition=bottom;align=center;verticalAlign=top;gradientColor=#ea6b66;" vertex="1" parent="1">
          <mxGeometry x="168.74" y="2547.46" width="34.81" height="34.81" as="geometry" />
        </mxCell>
        <mxCell id="TyV7Gub-jsDWzKIBqhkX-56" value="" style="dashed=0;html=1;shape=mxgraph.gmdl.plus;strokeColor=#ffffff;strokeWidth=2;shadow=0;sketch=0;" vertex="1" parent="TyV7Gub-jsDWzKIBqhkX-55">
          <mxGeometry x="12.432142857142859" y="12.432142857142859" width="9.94571428571429" height="9.94571428571429" as="geometry" />
        </mxCell>
        <mxCell id="TyV7Gub-jsDWzKIBqhkX-57" value="&lt;b style=&quot;&quot;&gt;&lt;i style=&quot;&quot;&gt;&lt;font color=&quot;#adadad&quot;&gt;Категория&lt;/font&gt;&lt;/i&gt;&lt;/b&gt;" style="text;fontSize=16;verticalAlign=middle;fillColor=#000000;whiteSpace=wrap;html=1;strokeColor=#666666;gradientColor=none;" vertex="1" parent="1">
          <mxGeometry x="584.5" y="2455.6299999999997" width="110" height="31.07" as="geometry" />
        </mxCell>
        <mxCell id="TyV7Gub-jsDWzKIBqhkX-58" value="" style="shape=ellipse;fillColor=#f8cecc;strokeColor=#b85450;shadow=1;aspect=fixed;sketch=0;html=1;labelPosition=center;verticalLabelPosition=bottom;align=center;verticalAlign=top;gradientColor=#ea6b66;" vertex="1" parent="1">
          <mxGeometry x="714.5" y="2454.47" width="34.81" height="34.81" as="geometry" />
        </mxCell>
        <mxCell id="TyV7Gub-jsDWzKIBqhkX-59" value="" style="dashed=0;html=1;shape=mxgraph.gmdl.plus;strokeColor=#ffffff;strokeWidth=2;shadow=0;sketch=0;" vertex="1" parent="TyV7Gub-jsDWzKIBqhkX-58">
          <mxGeometry x="12.432142857142859" y="12.432142857142859" width="9.94571428571429" height="9.94571428571429" as="geometry" />
        </mxCell>
        <mxCell id="TyV7Gub-jsDWzKIBqhkX-60" value="&lt;b style=&quot;&quot;&gt;&lt;font style=&quot;font-size: 12px;&quot;&gt;сортировать по категории&lt;/font&gt;&lt;/b&gt;" style="text;fontSize=16;verticalAlign=middle;strokeColor=none;fillColor=none;whiteSpace=wrap;html=1;" vertex="1" parent="1">
          <mxGeometry x="584.5" y="2413.76" width="160" height="24.6" as="geometry" />
        </mxCell>
        <mxCell id="TyV7Gub-jsDWzKIBqhkX-61" value="" style="verticalLabelPosition=bottom;verticalAlign=top;html=1;shape=mxgraph.basic.heart;fillColor=#f8cecc;strokeColor=#b85450;" vertex="1" parent="1">
          <mxGeometry x="413.37" y="2550.91" width="29.5" height="30" as="geometry" />
        </mxCell>
        <mxCell id="TyV7Gub-jsDWzKIBqhkX-62" value="&lt;b style=&quot;&quot;&gt;&lt;font style=&quot;font-size: 16px;&quot;&gt;Добавить в избранное&lt;/font&gt;&lt;/b&gt;" style="text;fontSize=16;verticalAlign=middle;strokeColor=none;fillColor=none;whiteSpace=wrap;html=1;" vertex="1" parent="1">
          <mxGeometry x="454.5" y="2554.3599999999997" width="200" height="24.6" as="geometry" />
        </mxCell>
        <mxCell id="TyV7Gub-jsDWzKIBqhkX-63" value="                       История покупок" style="dashed=0;shape=rect;fillColor=#f5f5f5;strokeColor=#666666;shadow=1;fontColor=#333333;fontSize=30;fontStyle=3;verticalAlign=top;spacingBottom=0;spacingLeft=16;spacingTop=15;align=left;" vertex="1" parent="1">
          <mxGeometry x="134.81" y="2806.0299999999997" width="669" height="540" as="geometry" />
        </mxCell>
        <mxCell id="TyV7Gub-jsDWzKIBqhkX-64" value="&lt;b&gt;&lt;font style=&quot;font-size: 18px;&quot;&gt;Огурцы, 7кг, Продукты питания&lt;/font&gt;&lt;/b&gt;" style="text;fontSize=16;verticalAlign=middle;strokeColor=none;fillColor=none;whiteSpace=wrap;html=1;" vertex="1" parent="1">
          <mxGeometry x="198.81" y="2904.3900000000003" width="340" height="32.73" as="geometry" />
        </mxCell>
        <mxCell id="TyV7Gub-jsDWzKIBqhkX-65" value="&lt;b&gt;&lt;font style=&quot;font-size: 18px;&quot;&gt;Шапка, 1 шт, Одежда&lt;/font&gt;&lt;/b&gt;" style="text;fontSize=16;verticalAlign=middle;strokeColor=none;fillColor=none;whiteSpace=wrap;html=1;" vertex="1" parent="1">
          <mxGeometry x="198.81" y="2937.12" width="340" height="32.73" as="geometry" />
        </mxCell>
        <mxCell id="TyV7Gub-jsDWzKIBqhkX-66" value="&lt;b&gt;&lt;font style=&quot;font-size: 18px;&quot;&gt;Шкаф, 1 шт, Мебель&lt;/font&gt;&lt;/b&gt;" style="text;fontSize=16;verticalAlign=middle;strokeColor=none;fillColor=none;whiteSpace=wrap;html=1;" vertex="1" parent="1">
          <mxGeometry x="198.81" y="2969.8500000000004" width="350" height="32.73" as="geometry" />
        </mxCell>
        <mxCell id="TyV7Gub-jsDWzKIBqhkX-67" value="&lt;b&gt;&lt;font color=&quot;#000033&quot; style=&quot;font-size: 18px;&quot;&gt;Бананы, 2кг, Продукты питания&lt;/font&gt;&lt;/b&gt;" style="text;fontSize=16;verticalAlign=middle;strokeColor=none;fillColor=none;whiteSpace=wrap;html=1;" vertex="1" parent="1">
          <mxGeometry x="198.81" y="3004.3900000000003" width="350" height="32.73" as="geometry" />
        </mxCell>
        <mxCell id="TyV7Gub-jsDWzKIBqhkX-68" value="&lt;b&gt;&lt;font style=&quot;font-size: 18px;&quot;&gt;Картошка, 12кг, Продукты питания&lt;/font&gt;&lt;/b&gt;" style="text;fontSize=16;verticalAlign=middle;strokeColor=none;fillColor=none;whiteSpace=wrap;html=1;" vertex="1" parent="1">
          <mxGeometry x="198.81" y="3037.12" width="340" height="32.73" as="geometry" />
        </mxCell>
        <mxCell id="TyV7Gub-jsDWzKIBqhkX-69" value="&lt;b&gt;&lt;font style=&quot;font-size: 18px;&quot;&gt;Lada Vesta, 1 шт, Техника&lt;/font&gt;&lt;/b&gt;" style="text;fontSize=16;verticalAlign=middle;strokeColor=none;fillColor=none;whiteSpace=wrap;html=1;" vertex="1" parent="1">
          <mxGeometry x="198.81" y="3069.8500000000004" width="350" height="32.73" as="geometry" />
        </mxCell>
        <mxCell id="TyV7Gub-jsDWzKIBqhkX-70" value="&lt;b&gt;&lt;font style=&quot;font-size: 18px;&quot;&gt;Чебуреки, 4 шт, Продукты питания&lt;/font&gt;&lt;/b&gt;" style="text;fontSize=16;verticalAlign=middle;strokeColor=none;fillColor=none;whiteSpace=wrap;html=1;" vertex="1" parent="1">
          <mxGeometry x="198.81" y="3104.3900000000003" width="320" height="32.73" as="geometry" />
        </mxCell>
        <mxCell id="TyV7Gub-jsDWzKIBqhkX-71" value="&lt;b&gt;&lt;font style=&quot;font-size: 18px;&quot;&gt;Топор, 1 шт, Инструменты&lt;/font&gt;&lt;/b&gt;" style="text;fontSize=16;verticalAlign=middle;strokeColor=none;fillColor=none;whiteSpace=wrap;html=1;" vertex="1" parent="1">
          <mxGeometry x="198.81" y="3134.3900000000003" width="320" height="32.73" as="geometry" />
        </mxCell>
        <mxCell id="TyV7Gub-jsDWzKIBqhkX-73" value="" style="dashed=0;labelPosition=right;align=left;shape=mxgraph.gmdl.checkbox;strokeColor=#666666;fillColor=none;strokeWidth=2;aspect=fixed;sketch=0;html=1;" vertex="1" parent="1">
          <mxGeometry x="168.81" y="2911.3999999999996" width="16" height="16" as="geometry" />
        </mxCell>
        <mxCell id="TyV7Gub-jsDWzKIBqhkX-74" value="" style="dashed=0;labelPosition=right;align=left;shape=mxgraph.gmdl.checkbox;strokeColor=#666666;fillColor=none;strokeWidth=2;aspect=fixed;sketch=0;html=1;" vertex="1" parent="1">
          <mxGeometry x="168.81" y="2942.76" width="16" height="16" as="geometry" />
        </mxCell>
        <mxCell id="TyV7Gub-jsDWzKIBqhkX-75" value="" style="dashed=0;labelPosition=right;align=left;shape=mxgraph.gmdl.checkbox;strokeColor=#666666;fillColor=none;strokeWidth=2;aspect=fixed;sketch=0;html=1;" vertex="1" parent="1">
          <mxGeometry x="168.81" y="2975.49" width="16" height="16" as="geometry" />
        </mxCell>
        <mxCell id="TyV7Gub-jsDWzKIBqhkX-76" value="" style="dashed=0;labelPosition=right;align=left;shape=mxgraph.gmdl.checkbox;strokeColor=#666666;fillColor=none;strokeWidth=2;aspect=fixed;sketch=0;html=1;" vertex="1" parent="1">
          <mxGeometry x="168.81" y="3010.0299999999997" width="16" height="16" as="geometry" />
        </mxCell>
        <mxCell id="TyV7Gub-jsDWzKIBqhkX-77" value="" style="dashed=0;labelPosition=right;align=left;shape=mxgraph.gmdl.checkbox;strokeColor=#666666;fillColor=none;strokeWidth=2;aspect=fixed;sketch=0;html=1;" vertex="1" parent="1">
          <mxGeometry x="168.81" y="3042.76" width="16" height="16" as="geometry" />
        </mxCell>
        <mxCell id="TyV7Gub-jsDWzKIBqhkX-78" value="" style="dashed=0;labelPosition=right;align=left;shape=mxgraph.gmdl.checkbox;strokeColor=#666666;fillColor=none;strokeWidth=2;aspect=fixed;sketch=0;html=1;" vertex="1" parent="1">
          <mxGeometry x="168.81" y="3075.49" width="16" height="16" as="geometry" />
        </mxCell>
        <mxCell id="TyV7Gub-jsDWzKIBqhkX-79" value="" style="dashed=0;labelPosition=right;align=left;shape=mxgraph.gmdl.checkbox;strokeColor=#666666;fillColor=none;strokeWidth=2;aspect=fixed;sketch=0;html=1;" vertex="1" parent="1">
          <mxGeometry x="168.81" y="3110.0299999999997" width="16" height="16" as="geometry" />
        </mxCell>
        <mxCell id="TyV7Gub-jsDWzKIBqhkX-80" value="" style="dashed=0;labelPosition=right;align=left;shape=mxgraph.gmdl.checkbox;strokeColor=#666666;fillColor=none;strokeWidth=2;aspect=fixed;sketch=0;html=1;" vertex="1" parent="1">
          <mxGeometry x="168.81" y="3140.0299999999997" width="16" height="16" as="geometry" />
        </mxCell>
        <mxCell id="TyV7Gub-jsDWzKIBqhkX-82" value="Удалить&lt;div&gt;выделенное&lt;/div&gt;" style="shape=rect;fontSize=13;strokeColor=#b85450;fillColor=#f8cecc;fontStyle=1;whiteSpace=wrap;html=1;gradientColor=#ea6b66;" vertex="1" parent="1">
          <mxGeometry x="168.81" y="3266.0299999999997" width="180" height="47.77" as="geometry" />
        </mxCell>
        <mxCell id="TyV7Gub-jsDWzKIBqhkX-83" value="Очистить&lt;div&gt;историю&lt;/div&gt;" style="shape=rect;fontSize=13;strokeColor=#b85450;fillColor=#f8cecc;fontStyle=1;whiteSpace=wrap;html=1;gradientColor=#ea6b66;" vertex="1" parent="1">
          <mxGeometry x="400.81" y="3266.0299999999997" width="168" height="47.77" as="geometry" />
        </mxCell>
        <mxCell id="TyV7Gub-jsDWzKIBqhkX-84" value="Отмена" style="shape=rect;fontSize=13;strokeColor=#b85450;fillColor=#f8cecc;fontStyle=1;whiteSpace=wrap;html=1;gradientColor=#ea6b66;" vertex="1" parent="1">
          <mxGeometry x="608.81" y="3266.0299999999997" width="157" height="47.77" as="geometry" />
        </mxCell>
        <mxCell id="TyV7Gub-jsDWzKIBqhkX-85" value="&lt;b&gt;&lt;font style=&quot;font-size: 17px;&quot;&gt;Открыть список&lt;/font&gt;&lt;/b&gt;" style="text;fontSize=16;verticalAlign=middle;strokeColor=none;fillColor=none;whiteSpace=wrap;html=1;" vertex="1" parent="1">
          <mxGeometry x="218.8093561103811" y="3179.9972727272734" width="255.92115637319316" height="32.72727272727273" as="geometry" />
        </mxCell>
        <mxCell id="TyV7Gub-jsDWzKIBqhkX-86" value="" style="shape=ellipse;fillColor=#f8cecc;strokeColor=#b85450;shadow=1;aspect=fixed;sketch=0;html=1;labelPosition=center;verticalLabelPosition=bottom;align=center;verticalAlign=top;gradientColor=#ea6b66;" vertex="1" parent="1">
          <mxGeometry x="164" y="3180" width="34.81" height="34.81" as="geometry" />
        </mxCell>
        <mxCell id="TyV7Gub-jsDWzKIBqhkX-87" value="" style="dashed=0;html=1;shape=mxgraph.gmdl.plus;strokeColor=#ffffff;strokeWidth=2;shadow=0;sketch=0;" vertex="1" parent="TyV7Gub-jsDWzKIBqhkX-86">
          <mxGeometry x="12.432142857142859" y="12.432142857142859" width="9.94571428571429" height="9.94571428571429" as="geometry" />
        </mxCell>
        <mxCell id="TyV7Gub-jsDWzKIBqhkX-88" value="" style="verticalLabelPosition=bottom;verticalAlign=top;html=1;shape=mxgraph.basic.heart;fillColor=#f8cecc;strokeColor=#b85450;" vertex="1" parent="1">
          <mxGeometry x="425" y="3182.41" width="29.5" height="30" as="geometry" />
        </mxCell>
        <mxCell id="TyV7Gub-jsDWzKIBqhkX-89" value="&lt;b style=&quot;&quot;&gt;&lt;font style=&quot;font-size: 16px;&quot;&gt;Восстановить список&lt;/font&gt;&lt;/b&gt;" style="text;fontSize=16;verticalAlign=middle;strokeColor=none;fillColor=none;whiteSpace=wrap;html=1;" vertex="1" parent="1">
          <mxGeometry x="464.5" y="3185.1099999999997" width="200" height="24.6" as="geometry" />
        </mxCell>
        <mxCell id="TyV7Gub-jsDWzKIBqhkX-90" value="" style="dashed=0;outlineConnect=0;html=1;align=center;labelPosition=center;verticalLabelPosition=bottom;verticalAlign=top;shape=mxgraph.webicons.oracle;fillColor=#FA3743;gradientColor=#E10E11" vertex="1" parent="1">
          <mxGeometry x="558.64" y="2905.49" width="214" height="170" as="geometry" />
        </mxCell>
        <mxCell id="TyV7Gub-jsDWzKIBqhkX-91" value="" style="dashed=0;outlineConnect=0;html=1;align=center;labelPosition=center;verticalLabelPosition=bottom;verticalAlign=top;shape=mxgraph.webicons.oracle;fillColor=#FA3743;gradientColor=#E10E11" vertex="1" parent="1">
          <mxGeometry x="557.5" y="3540" width="214" height="170" as="geometry" />
        </mxCell>
      </root>
    </mxGraphModel>
  </diagram>
</mxfile>
